<?xml version="1.0" encoding="UTF-8" standalone="no"?><svg xmlns="http://www.w3.org/2000/svg" xmlns:xlink="http://www.w3.org/1999/xlink" contentStyleType="text/css" height="126px" preserveAspectRatio="none" style="width:396px;height:126px;background:#FFFFFF;" version="1.1" viewBox="0 0 396 126" width="396px" zoomAndPan="magnify"><defs/><g><rect fill="#F1F1F1" height="43.2188" rx="5" ry="5" style="stroke:#F1F1F1;stroke-width:1.5;" width="134" x="10" y="40"/><text fill="#000000" font-family="sans-serif" font-size="14" font-weight="bold" lengthAdjust="spacing" textLength="96" x="15" y="56.5332">vote_account</text><text fill="#000000" font-family="sans-serif" font-size="14" lengthAdjust="spacing" textLength="12" x="127" y="56.5332">   </text><line style="stroke:#000000;stroke-width:1.0;" x1="122" x2="122" y1="40" y2="61.6094"/><line style="stroke:#000000;stroke-width:1.0;" x1="10" x2="144" y1="61.6094" y2="61.6094"/><text fill="#000000" font-family="sans-serif" font-size="14" font-weight="bold" lengthAdjust="spacing" textLength="102" x="15" y="78.1426">stake_account</text><text fill="#000000" font-family="sans-serif" font-size="14" lengthAdjust="spacing" textLength="12" x="127" y="78.1426">   </text><line style="stroke:#000000;stroke-width:1.0;" x1="122" x2="122" y1="61.6094" y2="83.2188"/><rect fill="none" height="43.2188" rx="5" ry="5" style="stroke:#000000;stroke-width:1.5;" width="134" x="10" y="40"/><rect fill="#F1F1F1" height="43.2188" rx="5" ry="5" style="stroke:#F1F1F1;stroke-width:1.5;" width="203" x="181" y="10"/><text fill="#000000" font-family="sans-serif" font-size="14" font-weight="bold" lengthAdjust="spacing" textLength="56" x="186" y="26.5332">account</text><text fill="#000000" font-family="sans-serif" font-size="14" lengthAdjust="spacing" textLength="127" x="252" y="26.5332">AccountSharedData</text><line style="stroke:#000000;stroke-width:1.0;" x1="247" x2="247" y1="10" y2="31.6094"/><line style="stroke:#000000;stroke-width:1.0;" x1="181" x2="384" y1="31.6094" y2="31.6094"/><text fill="#000000" font-family="sans-serif" font-size="14" font-weight="bold" lengthAdjust="spacing" textLength="35" x="186" y="48.1426">state</text><text fill="#000000" font-family="sans-serif" font-size="14" lengthAdjust="spacing" textLength="62" x="252" y="48.1426">VoteState</text><line style="stroke:#000000;stroke-width:1.0;" x1="247" x2="247" y1="31.6094" y2="53.2188"/><rect fill="none" height="43.2188" rx="5" ry="5" style="stroke:#000000;stroke-width:1.5;" width="203" x="181" y="10"/><rect fill="#F1F1F1" height="43.2188" rx="5" ry="5" style="stroke:#F1F1F1;stroke-width:1.5;" width="203" x="181" y="71"/><text fill="#000000" font-family="sans-serif" font-size="14" font-weight="bold" lengthAdjust="spacing" textLength="56" x="186" y="87.5332">account</text><text fill="#000000" font-family="sans-serif" font-size="14" lengthAdjust="spacing" textLength="127" x="252" y="87.5332">AccountSharedData</text><line style="stroke:#000000;stroke-width:1.0;" x1="247" x2="247" y1="71" y2="92.6094"/><line style="stroke:#000000;stroke-width:1.0;" x1="181" x2="384" y1="92.6094" y2="92.6094"/><text fill="#000000" font-family="sans-serif" font-size="14" font-weight="bold" lengthAdjust="spacing" textLength="35" x="186" y="109.1426">state</text><text fill="#000000" font-family="sans-serif" font-size="14" lengthAdjust="spacing" textLength="69" x="252" y="109.1426">StakeState</text><line style="stroke:#000000;stroke-width:1.0;" x1="247" x2="247" y1="92.6094" y2="114.2188"/><rect fill="none" height="43.2188" rx="5" ry="5" style="stroke:#000000;stroke-width:1.5;" width="203" x="181" y="71"/><path d="M132,50.5 L145,50.5 C154.2842,50.5 163.889,50.0666 173.5058,49.3307 " fill="none" style="stroke:#000000;stroke-width:1.0;stroke-dasharray:3.0,3.0;"/><path d="M173.7668,52.4144 L175.8185,49.135 L173.2448,46.247 L181.2149,48.6782 L173.7668,52.4144 " fill="#000000" style="stroke:#000000;stroke-width:1.0;"/><ellipse cx="132" cy="50.5" fill="#000000" rx="3" ry="3" style="stroke:#000000;stroke-width:1.0;"/><path d="M132,72.5 L145,72.5 C154.2936,72.5 163.905,72.9562 173.5262,73.7308 " fill="none" style="stroke:#000000;stroke-width:1.0;stroke-dasharray:3.0,3.0;"/><path d="M173.2515,76.8157 L175.8399,73.9369 L173.801,70.6459 L181.2384,74.4177 L173.2515,76.8157 " fill="#000000" style="stroke:#000000;stroke-width:1.0;"/><ellipse cx="132" cy="72.5" fill="#000000" rx="3" ry="3" style="stroke:#000000;stroke-width:1.0;"/><!--MD5=[c0c443a8553636ede90744823a992c8f]
@startjson
{

    "vote_account" : {
        "account": "AccountSharedData",
        "state": "VoteState"
    },



    "stake_account" : {
        "account": "AccountSharedData",
        "state": "StakeState"
    }

}
@endjson

PlantUML version 1.2022.7(Mon Aug 22 12:01:30 CDT 2022)
(GPL source distribution)
Java Runtime: Java(TM) SE Runtime Environment
JVM: Java HotSpot(TM) 64-Bit Server VM
Default Encoding: Cp1252
Language: en
Country: US
--></g></svg>