<?xml version="1.0" encoding="UTF-8" standalone="no"?>
<!DOCTYPE svg PUBLIC "-//W3C//DTD SVG 1.1//EN"
 "http://www.w3.org/Graphics/SVG/1.1/DTD/svg11.dtd">
<!-- Generated by graphviz version 5.0.0 (20220707.1540)
 -->
<!-- Pages: 1 -->
<svg width="588pt" height="426pt"
 viewBox="0.00 0.00 588.00 426.00" xmlns="http://www.w3.org/2000/svg" xmlns:xlink="http://www.w3.org/1999/xlink">
<g id="graph0" class="graph" transform="scale(1 1) rotate(0) translate(4 422)">
<polygon fill="white" stroke="transparent" points="-4,4 -4,-422 584,-422 584,4 -4,4"/>
<g id="clust6" class="cluster">
<title>cluster1</title>
<polygon fill="none" stroke="black" points="242,-80 242,-374 336,-374 336,-80 242,-80"/>
<text text-anchor="middle" x="289" y="-358.8" font-family="Times,serif" font-size="14.00">L1</text>
</g>
<g id="clust7" class="cluster">
<title>cluster2</title>
<polygon fill="none" stroke="black" points="8,-8 8,-299 102,-299 102,-8 8,-8"/>
<text text-anchor="middle" x="55" y="-283.8" font-family="Times,serif" font-size="14.00">L2</text>
</g>
<g id="clust8" class="cluster">
<title>cluster3</title>
<polygon fill="none" stroke="black" points="376,-8 376,-299 470,-299 470,-8 376,-8"/>
<text text-anchor="middle" x="423" y="-283.8" font-family="Times,serif" font-size="14.00">L2</text>
</g>
<g id="clust9" class="cluster">
<title>cluster4</title>
<polygon fill="none" stroke="black" points="110,-8 110,-299 204,-299 204,-8 110,-8"/>
<text text-anchor="middle" x="157" y="-283.8" font-family="Times,serif" font-size="14.00">L2</text>
</g>
<g id="clust10" class="cluster">
<title>cluster5</title>
<polygon fill="none" stroke="black" points="478,-8 478,-299 572,-299 572,-8 478,-8"/>
<text text-anchor="middle" x="525" y="-283.8" font-family="Times,serif" font-size="14.00">L2</text>
</g>
<!-- n0_0 -->
<g id="node1" class="node">
<title>n0_0</title>
<ellipse fill="none" stroke="black" cx="270" cy="-400" rx="53.89" ry="18"/>
<text text-anchor="middle" x="270" y="-396.3" font-family="Times,serif" font-size="14.00">leader (n00)</text>
</g>
<!-- n1_0 -->
<g id="node2" class="node">
<title>n1_0</title>
<ellipse fill="none" stroke="black" cx="299" cy="-325" rx="28.7" ry="18"/>
<text text-anchor="middle" x="299" y="-321.3" font-family="Times,serif" font-size="14.00">n1_0</text>
</g>
<!-- n0_0&#45;&gt;n1_0 -->
<g id="edge1" class="edge">
<title>n0_0&#45;&gt;n1_0</title>
<path fill="none" stroke="black" d="M276.73,-382.07C280.26,-373.16 284.68,-362.04 288.65,-352.06"/>
<polygon fill="black" stroke="black" points="291.97,-353.17 292.41,-342.59 285.47,-350.59 291.97,-353.17"/>
</g>
<!-- n1_1 -->
<g id="node3" class="node">
<title>n1_1</title>
<ellipse fill="none" stroke="black" cx="279" cy="-250" rx="28.7" ry="18"/>
<text text-anchor="middle" x="279" y="-246.3" font-family="Times,serif" font-size="14.00">n1_1</text>
</g>
<!-- n0_0&#45;&gt;n1_1 -->
<g id="edge2" class="edge">
<title>n0_0&#45;&gt;n1_1</title>
<path fill="none" stroke="black" d="M263,-382C262.17,-379.36 261.46,-376.64 261,-374 255.88,-344.67 256.39,-336.42 261,-307 262.56,-297.07 265.58,-286.5 268.7,-277.25"/>
<polygon fill="black" stroke="black" points="272,-278.42 272.08,-267.82 265.41,-276.06 272,-278.42"/>
</g>
<!-- n1_2 -->
<g id="node4" class="node">
<title>n1_2</title>
<ellipse fill="none" stroke="black" cx="279" cy="-178" rx="28.7" ry="18"/>
<text text-anchor="middle" x="279" y="-174.3" font-family="Times,serif" font-size="14.00">n1_2</text>
</g>
<!-- n0_0&#45;&gt;n1_2 -->
<g id="edge3" class="edge">
<title>n0_0&#45;&gt;n1_2</title>
<path fill="none" stroke="black" d="M257.24,-382.35C255.61,-379.66 254.12,-376.83 253,-374 229.63,-315.13 221.62,-292.3 241,-232 244.52,-221.05 251.22,-210.45 258.04,-201.65"/>
<polygon fill="black" stroke="black" points="260.84,-203.74 264.5,-193.8 255.44,-199.29 260.84,-203.74"/>
</g>
<!-- n1_3 -->
<g id="node5" class="node">
<title>n1_3</title>
<ellipse fill="none" stroke="black" cx="299" cy="-106" rx="28.7" ry="18"/>
<text text-anchor="middle" x="299" y="-102.3" font-family="Times,serif" font-size="14.00">n1_3</text>
</g>
<!-- n0_0&#45;&gt;n1_3 -->
<g id="edge4" class="edge">
<title>n0_0&#45;&gt;n1_3</title>
<path fill="none" stroke="black" d="M315.84,-390.35C324.16,-386.68 331.83,-381.45 337,-374 389.17,-298.84 339.56,-182.86 313.15,-132.16"/>
<polygon fill="black" stroke="black" points="316.16,-130.38 308.36,-123.2 309.99,-133.67 316.16,-130.38"/>
</g>
<!-- n1_0&#45;&gt;n1_1 -->
<g id="edge21" class="edge">
<title>n1_0&#45;&gt;n1_1</title>
<path fill="none" stroke="black" d="M294.36,-307.07C291.96,-298.32 288.98,-287.43 286.28,-277.59"/>
<polygon fill="black" stroke="black" points="289.63,-276.56 283.61,-267.84 282.88,-278.41 289.63,-276.56"/>
</g>
<!-- n2_0 -->
<g id="node6" class="node">
<title>n2_0</title>
<ellipse fill="none" stroke="black" cx="65" cy="-250" rx="28.7" ry="18"/>
<text text-anchor="middle" x="65" y="-246.3" font-family="Times,serif" font-size="14.00">n2_0</text>
</g>
<!-- n1_0&#45;&gt;n2_0 -->
<g id="edge5" class="edge">
<title>n1_0&#45;&gt;n2_0</title>
<path fill="none" stroke="black" d="M270.55,-322.81C223.96,-320.45 133.78,-314.04 106,-299 95.78,-293.46 86.98,-284.27 80.19,-275.4"/>
<polygon fill="black" stroke="black" points="82.96,-273.26 74.32,-267.13 77.26,-277.31 82.96,-273.26"/>
</g>
<!-- n2_4 -->
<g id="node7" class="node">
<title>n2_4</title>
<ellipse fill="none" stroke="black" cx="413" cy="-250" rx="28.7" ry="18"/>
<text text-anchor="middle" x="413" y="-246.3" font-family="Times,serif" font-size="14.00">n2_4</text>
</g>
<!-- n1_0&#45;&gt;n2_4 -->
<g id="edge6" class="edge">
<title>n1_0&#45;&gt;n2_4</title>
<path fill="none" stroke="black" d="M319.1,-311.93C325.78,-307.87 333.24,-303.28 340,-299 355.24,-289.35 372.08,-278.3 385.74,-269.24"/>
<polygon fill="black" stroke="black" points="387.82,-272.06 394.21,-263.61 383.94,-266.23 387.82,-272.06"/>
</g>
<!-- n2_8 -->
<g id="node8" class="node">
<title>n2_8</title>
<ellipse fill="none" stroke="black" cx="165" cy="-250" rx="28.7" ry="18"/>
<text text-anchor="middle" x="165" y="-246.3" font-family="Times,serif" font-size="14.00">n2_8</text>
</g>
<!-- n1_0&#45;&gt;n2_8 -->
<g id="edge7" class="edge">
<title>n1_0&#45;&gt;n2_8</title>
<path fill="none" stroke="black" d="M274.76,-315.3C263.37,-310.91 249.74,-305.19 238,-299 221.93,-290.53 204.92,-279.48 191.37,-270.11"/>
<polygon fill="black" stroke="black" points="193.2,-267.12 183,-264.25 189.18,-272.86 193.2,-267.12"/>
</g>
<!-- n2_c -->
<g id="node9" class="node">
<title>n2_c</title>
<ellipse fill="none" stroke="black" cx="515" cy="-250" rx="27.9" ry="18"/>
<text text-anchor="middle" x="515" y="-246.3" font-family="Times,serif" font-size="14.00">n2_c</text>
</g>
<!-- n1_0&#45;&gt;n2_c -->
<g id="edge8" class="edge">
<title>n1_0&#45;&gt;n2_c</title>
<path fill="none" stroke="black" d="M327.57,-322.36C370.54,-319.49 449.4,-312.53 474,-299 484.19,-293.4 492.97,-284.19 499.77,-275.34"/>
<polygon fill="black" stroke="black" points="502.7,-277.25 505.66,-267.08 497,-273.19 502.7,-277.25"/>
</g>
<!-- n1_1&#45;&gt;n1_2 -->
<g id="edge22" class="edge">
<title>n1_1&#45;&gt;n1_2</title>
<path fill="none" stroke="black" d="M279,-231.7C279,-223.98 279,-214.71 279,-206.11"/>
<polygon fill="black" stroke="black" points="282.5,-206.1 279,-196.1 275.5,-206.1 282.5,-206.1"/>
</g>
<!-- n2_1 -->
<g id="node10" class="node">
<title>n2_1</title>
<ellipse fill="none" stroke="black" cx="65" cy="-178" rx="28.7" ry="18"/>
<text text-anchor="middle" x="65" y="-174.3" font-family="Times,serif" font-size="14.00">n2_1</text>
</g>
<!-- n1_1&#45;&gt;n2_1 -->
<g id="edge9" class="edge">
<title>n1_1&#45;&gt;n2_1</title>
<path fill="none" stroke="black" d="M253.25,-241.94C219.22,-232.43 157.58,-214.55 106,-196 103.12,-194.96 100.15,-193.84 97.18,-192.68"/>
<polygon fill="black" stroke="black" points="98.42,-189.41 87.83,-188.92 95.8,-195.9 98.42,-189.41"/>
</g>
<!-- n2_5 -->
<g id="node11" class="node">
<title>n2_5</title>
<ellipse fill="none" stroke="black" cx="413" cy="-178" rx="28.7" ry="18"/>
<text text-anchor="middle" x="413" y="-174.3" font-family="Times,serif" font-size="14.00">n2_5</text>
</g>
<!-- n1_1&#45;&gt;n2_5 -->
<g id="edge10" class="edge">
<title>n1_1&#45;&gt;n2_5</title>
<path fill="none" stroke="black" d="M300.23,-237.91C322.35,-226.35 357.22,-208.14 382.32,-195.02"/>
<polygon fill="black" stroke="black" points="384.18,-198 391.42,-190.27 380.94,-191.8 384.18,-198"/>
</g>
<!-- n2_9 -->
<g id="node12" class="node">
<title>n2_9</title>
<ellipse fill="none" stroke="black" cx="167" cy="-178" rx="28.7" ry="18"/>
<text text-anchor="middle" x="167" y="-174.3" font-family="Times,serif" font-size="14.00">n2_9</text>
</g>
<!-- n1_1&#45;&gt;n2_9 -->
<g id="edge11" class="edge">
<title>n1_1&#45;&gt;n2_9</title>
<path fill="none" stroke="black" d="M259.49,-236.81C241.77,-225.73 215.42,-209.26 195.38,-196.73"/>
<polygon fill="black" stroke="black" points="197,-193.62 186.66,-191.29 193.29,-199.56 197,-193.62"/>
</g>
<!-- n2_d -->
<g id="node13" class="node">
<title>n2_d</title>
<ellipse fill="none" stroke="black" cx="515" cy="-178" rx="28.7" ry="18"/>
<text text-anchor="middle" x="515" y="-174.3" font-family="Times,serif" font-size="14.00">n2_d</text>
</g>
<!-- n1_1&#45;&gt;n2_d -->
<g id="edge12" class="edge">
<title>n1_1&#45;&gt;n2_d</title>
<path fill="none" stroke="black" d="M305.5,-242.94C343.32,-234.03 414.74,-216.25 474,-196 476.9,-195.01 479.88,-193.92 482.86,-192.78"/>
<polygon fill="black" stroke="black" points="484.22,-196.01 492.21,-189.05 481.63,-189.5 484.22,-196.01"/>
</g>
<!-- n1_2&#45;&gt;n1_3 -->
<g id="edge23" class="edge">
<title>n1_2&#45;&gt;n1_3</title>
<path fill="none" stroke="black" d="M283.84,-160.05C286.1,-152.14 288.85,-142.54 291.37,-133.69"/>
<polygon fill="black" stroke="black" points="294.82,-134.37 294.2,-123.79 288.09,-132.44 294.82,-134.37"/>
</g>
<!-- n2_2 -->
<g id="node14" class="node">
<title>n2_2</title>
<ellipse fill="none" stroke="black" cx="65" cy="-106" rx="28.7" ry="18"/>
<text text-anchor="middle" x="65" y="-102.3" font-family="Times,serif" font-size="14.00">n2_2</text>
</g>
<!-- n1_2&#45;&gt;n2_2 -->
<g id="edge13" class="edge">
<title>n1_2&#45;&gt;n2_2</title>
<path fill="none" stroke="black" d="M253.25,-169.94C219.22,-160.43 157.58,-142.55 106,-124 103.12,-122.96 100.15,-121.84 97.18,-120.68"/>
<polygon fill="black" stroke="black" points="98.42,-117.41 87.83,-116.92 95.8,-123.9 98.42,-117.41"/>
</g>
<!-- n2_6 -->
<g id="node15" class="node">
<title>n2_6</title>
<ellipse fill="none" stroke="black" cx="413" cy="-106" rx="28.7" ry="18"/>
<text text-anchor="middle" x="413" y="-102.3" font-family="Times,serif" font-size="14.00">n2_6</text>
</g>
<!-- n1_2&#45;&gt;n2_6 -->
<g id="edge14" class="edge">
<title>n1_2&#45;&gt;n2_6</title>
<path fill="none" stroke="black" d="M300.23,-165.91C322.35,-154.35 357.22,-136.14 382.32,-123.02"/>
<polygon fill="black" stroke="black" points="384.18,-126 391.42,-118.27 380.94,-119.8 384.18,-126"/>
</g>
<!-- n2_a -->
<g id="node16" class="node">
<title>n2_a</title>
<ellipse fill="none" stroke="black" cx="167" cy="-106" rx="27.9" ry="18"/>
<text text-anchor="middle" x="167" y="-102.3" font-family="Times,serif" font-size="14.00">n2_a</text>
</g>
<!-- n1_2&#45;&gt;n2_a -->
<g id="edge15" class="edge">
<title>n1_2&#45;&gt;n2_a</title>
<path fill="none" stroke="black" d="M259.49,-164.81C241.66,-153.67 215.1,-137.06 195.01,-124.5"/>
<polygon fill="black" stroke="black" points="196.62,-121.39 186.29,-119.05 192.91,-127.32 196.62,-121.39"/>
</g>
<!-- n2_e -->
<g id="node17" class="node">
<title>n2_e</title>
<ellipse fill="none" stroke="black" cx="514" cy="-106" rx="27.9" ry="18"/>
<text text-anchor="middle" x="514" y="-102.3" font-family="Times,serif" font-size="14.00">n2_e</text>
</g>
<!-- n1_2&#45;&gt;n2_e -->
<g id="edge16" class="edge">
<title>n1_2&#45;&gt;n2_e</title>
<path fill="none" stroke="black" d="M305.53,-171.01C343.37,-162.18 414.83,-144.51 474,-124 476.74,-123.05 479.56,-122 482.37,-120.91"/>
<polygon fill="black" stroke="black" points="483.84,-124.09 491.79,-117.08 481.2,-117.6 483.84,-124.09"/>
</g>
<!-- n1_3&#45;&gt;n1_0 -->
<g id="edge24" class="edge">
<title>n1_3&#45;&gt;n1_0</title>
<path fill="none" stroke="black" d="M306.29,-123.82C310.33,-134.06 314.94,-147.54 317,-160 327.07,-220.95 335.96,-240.2 317,-299 316.9,-299.32 316.78,-299.65 316.67,-299.97"/>
<polygon fill="black" stroke="black" points="313.51,-298.46 312.06,-308.95 319.74,-301.66 313.51,-298.46"/>
</g>
<!-- n2_3 -->
<g id="node18" class="node">
<title>n2_3</title>
<ellipse fill="none" stroke="black" cx="65" cy="-34" rx="28.7" ry="18"/>
<text text-anchor="middle" x="65" y="-30.3" font-family="Times,serif" font-size="14.00">n2_3</text>
</g>
<!-- n1_3&#45;&gt;n2_3 -->
<g id="edge17" class="edge">
<title>n1_3&#45;&gt;n2_3</title>
<path fill="none" stroke="black" d="M273.11,-97.89C254.9,-92.88 229.96,-86.03 208,-80 162.67,-67.55 150.47,-67.25 106,-52 103.11,-51.01 100.12,-49.91 97.15,-48.77"/>
<polygon fill="black" stroke="black" points="98.38,-45.5 87.79,-45.04 95.78,-52 98.38,-45.5"/>
</g>
<!-- n2_7 -->
<g id="node19" class="node">
<title>n2_7</title>
<ellipse fill="none" stroke="black" cx="413" cy="-34" rx="28.7" ry="18"/>
<text text-anchor="middle" x="413" y="-30.3" font-family="Times,serif" font-size="14.00">n2_7</text>
</g>
<!-- n1_3&#45;&gt;n2_7 -->
<g id="edge18" class="edge">
<title>n1_3&#45;&gt;n2_7</title>
<path fill="none" stroke="black" d="M318.86,-92.81C336.97,-81.68 363.95,-65.12 384.39,-52.57"/>
<polygon fill="black" stroke="black" points="386.3,-55.5 392.99,-47.29 382.63,-49.54 386.3,-55.5"/>
</g>
<!-- n2_b -->
<g id="node20" class="node">
<title>n2_b</title>
<ellipse fill="none" stroke="black" cx="167" cy="-34" rx="28.7" ry="18"/>
<text text-anchor="middle" x="167" y="-30.3" font-family="Times,serif" font-size="14.00">n2_b</text>
</g>
<!-- n1_3&#45;&gt;n2_b -->
<g id="edge19" class="edge">
<title>n1_3&#45;&gt;n2_b</title>
<path fill="none" stroke="black" d="M277.79,-93.75C255.95,-82.17 221.72,-64.02 197.08,-50.95"/>
<polygon fill="black" stroke="black" points="198.63,-47.81 188.16,-46.22 195.35,-54 198.63,-47.81"/>
</g>
<!-- n2_f -->
<g id="node21" class="node">
<title>n2_f</title>
<ellipse fill="none" stroke="black" cx="514" cy="-34" rx="27" ry="18"/>
<text text-anchor="middle" x="514" y="-30.3" font-family="Times,serif" font-size="14.00">n2_f</text>
</g>
<!-- n1_3&#45;&gt;n2_f -->
<g id="edge20" class="edge">
<title>n1_3&#45;&gt;n2_f</title>
<path fill="none" stroke="black" d="M323.21,-96.29C337.36,-91.3 355.61,-85.05 372,-80 416.93,-66.16 429.6,-67.45 474,-52 476.9,-50.99 479.89,-49.87 482.86,-48.71"/>
<polygon fill="black" stroke="black" points="484.27,-51.91 492.2,-44.89 481.62,-45.43 484.27,-51.91"/>
</g>
<!-- n2_0&#45;&gt;n2_1 -->
<g id="edge25" class="edge">
<title>n2_0&#45;&gt;n2_1</title>
<path fill="none" stroke="black" d="M65,-231.7C65,-223.98 65,-214.71 65,-206.11"/>
<polygon fill="black" stroke="black" points="68.5,-206.1 65,-196.1 61.5,-206.1 68.5,-206.1"/>
</g>
<!-- n2_4&#45;&gt;n2_5 -->
<g id="edge29" class="edge">
<title>n2_4&#45;&gt;n2_5</title>
<path fill="none" stroke="black" d="M413,-231.7C413,-223.98 413,-214.71 413,-206.11"/>
<polygon fill="black" stroke="black" points="416.5,-206.1 413,-196.1 409.5,-206.1 416.5,-206.1"/>
</g>
<!-- n2_8&#45;&gt;n2_9 -->
<g id="edge33" class="edge">
<title>n2_8&#45;&gt;n2_9</title>
<path fill="none" stroke="black" d="M165.49,-231.7C165.71,-223.98 165.98,-214.71 166.23,-206.11"/>
<polygon fill="black" stroke="black" points="169.72,-206.2 166.51,-196.1 162.73,-206 169.72,-206.2"/>
</g>
<!-- n2_c&#45;&gt;n2_d -->
<g id="edge37" class="edge">
<title>n2_c&#45;&gt;n2_d</title>
<path fill="none" stroke="black" d="M515,-231.7C515,-223.98 515,-214.71 515,-206.11"/>
<polygon fill="black" stroke="black" points="518.5,-206.1 515,-196.1 511.5,-206.1 518.5,-206.1"/>
</g>
<!-- n2_1&#45;&gt;n2_2 -->
<g id="edge26" class="edge">
<title>n2_1&#45;&gt;n2_2</title>
<path fill="none" stroke="black" d="M65,-159.7C65,-151.98 65,-142.71 65,-134.11"/>
<polygon fill="black" stroke="black" points="68.5,-134.1 65,-124.1 61.5,-134.1 68.5,-134.1"/>
</g>
<!-- n2_5&#45;&gt;n2_6 -->
<g id="edge30" class="edge">
<title>n2_5&#45;&gt;n2_6</title>
<path fill="none" stroke="black" d="M413,-159.7C413,-151.98 413,-142.71 413,-134.11"/>
<polygon fill="black" stroke="black" points="416.5,-134.1 413,-124.1 409.5,-134.1 416.5,-134.1"/>
</g>
<!-- n2_9&#45;&gt;n2_a -->
<g id="edge34" class="edge">
<title>n2_9&#45;&gt;n2_a</title>
<path fill="none" stroke="black" d="M167,-159.7C167,-151.98 167,-142.71 167,-134.11"/>
<polygon fill="black" stroke="black" points="170.5,-134.1 167,-124.1 163.5,-134.1 170.5,-134.1"/>
</g>
<!-- n2_d&#45;&gt;n2_e -->
<g id="edge38" class="edge">
<title>n2_d&#45;&gt;n2_e</title>
<path fill="none" stroke="black" d="M514.75,-159.7C514.64,-151.98 514.51,-142.71 514.39,-134.11"/>
<polygon fill="black" stroke="black" points="517.89,-134.05 514.24,-124.1 510.89,-134.15 517.89,-134.05"/>
</g>
<!-- n2_2&#45;&gt;n2_3 -->
<g id="edge27" class="edge">
<title>n2_2&#45;&gt;n2_3</title>
<path fill="none" stroke="black" d="M65,-87.7C65,-79.98 65,-70.71 65,-62.11"/>
<polygon fill="black" stroke="black" points="68.5,-62.1 65,-52.1 61.5,-62.1 68.5,-62.1"/>
</g>
<!-- n2_6&#45;&gt;n2_7 -->
<g id="edge31" class="edge">
<title>n2_6&#45;&gt;n2_7</title>
<path fill="none" stroke="black" d="M413,-87.7C413,-79.98 413,-70.71 413,-62.11"/>
<polygon fill="black" stroke="black" points="416.5,-62.1 413,-52.1 409.5,-62.1 416.5,-62.1"/>
</g>
<!-- n2_a&#45;&gt;n2_b -->
<g id="edge35" class="edge">
<title>n2_a&#45;&gt;n2_b</title>
<path fill="none" stroke="black" d="M167,-87.7C167,-79.98 167,-70.71 167,-62.11"/>
<polygon fill="black" stroke="black" points="170.5,-62.1 167,-52.1 163.5,-62.1 170.5,-62.1"/>
</g>
<!-- n2_e&#45;&gt;n2_f -->
<g id="edge39" class="edge">
<title>n2_e&#45;&gt;n2_f</title>
<path fill="none" stroke="black" d="M514,-87.7C514,-79.98 514,-70.71 514,-62.11"/>
<polygon fill="black" stroke="black" points="517.5,-62.1 514,-52.1 510.5,-62.1 517.5,-62.1"/>
</g>
<!-- n2_3&#45;&gt;n2_0 -->
<g id="edge28" class="edge">
<title>n2_3&#45;&gt;n2_0</title>
<path fill="none" stroke="black" d="M48.58,-49.06C40.41,-57.16 31.36,-68.09 27,-80 9.29,-128.42 11.22,-146.92 27,-196 30.52,-206.95 37.22,-217.55 44.04,-226.35"/>
<polygon fill="black" stroke="black" points="41.44,-228.71 50.5,-234.2 46.84,-224.26 41.44,-228.71"/>
</g>
<!-- n2_7&#45;&gt;n2_4 -->
<g id="edge32" class="edge">
<title>n2_7&#45;&gt;n2_4</title>
<path fill="none" stroke="black" d="M429.42,-49.06C437.59,-57.16 446.64,-68.09 451,-80 468.71,-128.42 466.78,-146.92 451,-196 447.48,-206.95 440.78,-217.55 433.96,-226.35"/>
<polygon fill="black" stroke="black" points="431.16,-224.26 427.5,-234.2 436.56,-228.71 431.16,-224.26"/>
</g>
<!-- n2_b&#45;&gt;n2_8 -->
<g id="edge36" class="edge">
<title>n2_b&#45;&gt;n2_8</title>
<path fill="none" stroke="black" d="M151.07,-49.16C143.12,-57.29 134.3,-68.22 130,-80 120.31,-106.53 123.95,-179.57 129,-196 132.29,-206.69 138.54,-217.15 144.93,-225.92"/>
<polygon fill="black" stroke="black" points="142.35,-228.31 151.25,-234.07 147.88,-224.02 142.35,-228.31"/>
</g>
<!-- n2_f&#45;&gt;n2_c -->
<g id="edge40" class="edge">
<title>n2_f&#45;&gt;n2_c</title>
<path fill="none" stroke="black" d="M529.49,-48.79C537.52,-56.97 546.55,-68.06 551,-80 560.24,-104.81 558.54,-178.77 553,-196 549.48,-206.95 542.78,-217.55 535.96,-226.35"/>
<polygon fill="black" stroke="black" points="533.16,-224.26 529.5,-234.2 538.56,-228.71 533.16,-224.26"/>
</g>
</g>
</svg>
