<?xml version="1.0" encoding="UTF-8" standalone="no"?><svg xmlns="http://www.w3.org/2000/svg" xmlns:xlink="http://www.w3.org/1999/xlink" contentStyleType="text/css" height="494px" preserveAspectRatio="none" style="width:540px;height:494px;background:#FFFFFF;" version="1.1" viewBox="0 0 540 494" width="540px" zoomAndPan="magnify"><defs/><g><!--MD5=[cd869b34d688661372d713ff53dbac1f]
class account--><g id="elem_account"><rect codeLine="3" fill="#F1F1F1" height="48" id="account" rx="2.5" ry="2.5" style="stroke:#181818;stroke-width:0.5;" width="86" x="108" y="331"/><ellipse cx="123" cy="347" fill="#ADD1B2" rx="11" ry="11" style="stroke:#181818;stroke-width:1.0;"/><path d="M125.4731,353.1431 Q124.8921,353.4419 124.2529,353.5913 Q123.6138,353.7407 122.9082,353.7407 Q120.4014,353.7407 119.0815,352.0889 Q117.7617,350.437 117.7617,347.3159 Q117.7617,344.1865 119.0815,342.5347 Q120.4014,340.8828 122.9082,340.8828 Q123.6138,340.8828 124.2612,341.0322 Q124.9087,341.1816 125.4731,341.4805 L125.4731,344.2031 Q124.8423,343.6221 124.2488,343.3523 Q123.6553,343.0825 123.0244,343.0825 Q121.6797,343.0825 120.9949,344.1492 Q120.3101,345.2158 120.3101,347.3159 Q120.3101,349.4077 120.9949,350.4744 Q121.6797,351.541 123.0244,351.541 Q123.6553,351.541 124.2488,351.2712 Q124.8423,351.0015 125.4731,350.4204 Z " fill="#000000"/><text fill="#000000" font-family="sans-serif" font-size="14" lengthAdjust="spacing" textLength="54" x="137" y="352.291">account</text><line style="stroke:#181818;stroke-width:0.5;" x1="109" x2="193" y1="363" y2="363"/><line style="stroke:#181818;stroke-width:0.5;" x1="109" x2="193" y1="371" y2="371"/></g><!--MD5=[d7c68d707ef650cb3db5a970ae4af05f]
class instruction--><g id="elem_instruction"><rect codeLine="4" fill="#F1F1F1" height="48" id="instruction" rx="2.5" ry="2.5" style="stroke:#181818;stroke-width:0.5;" width="106" x="229" y="331"/><ellipse cx="244" cy="347" fill="#ADD1B2" rx="11" ry="11" style="stroke:#181818;stroke-width:1.0;"/><path d="M246.4731,353.1431 Q245.8921,353.4419 245.2529,353.5913 Q244.6138,353.7407 243.9082,353.7407 Q241.4014,353.7407 240.0815,352.0889 Q238.7617,350.437 238.7617,347.3159 Q238.7617,344.1865 240.0815,342.5347 Q241.4014,340.8828 243.9082,340.8828 Q244.6138,340.8828 245.2612,341.0322 Q245.9087,341.1816 246.4731,341.4805 L246.4731,344.2031 Q245.8423,343.6221 245.2488,343.3523 Q244.6553,343.0825 244.0244,343.0825 Q242.6797,343.0825 241.9949,344.1492 Q241.3101,345.2158 241.3101,347.3159 Q241.3101,349.4077 241.9949,350.4744 Q242.6797,351.541 244.0244,351.541 Q244.6553,351.541 245.2488,351.2712 Q245.8423,351.0015 246.4731,350.4204 Z " fill="#000000"/><text fill="#000000" font-family="sans-serif" font-size="14" lengthAdjust="spacing" textLength="74" x="258" y="352.291">instruction</text><line style="stroke:#181818;stroke-width:0.5;" x1="230" x2="334" y1="363" y2="363"/><line style="stroke:#181818;stroke-width:0.5;" x1="230" x2="334" y1="371" y2="371"/></g><!--MD5=[ad11c074f17e94f855bb4a3cc417fef6]
class vote_account--><g id="elem_vote_account"><rect codeLine="8" fill="#F1F1F1" height="48" id="vote_account" rx="2.5" ry="2.5" style="stroke:#181818;stroke-width:0.5;" width="122" x="29" y="115"/><ellipse cx="44" cy="131" fill="#ADD1B2" rx="11" ry="11" style="stroke:#181818;stroke-width:1.0;"/><path d="M46.4731,137.1431 Q45.8921,137.4419 45.2529,137.5913 Q44.6138,137.7407 43.9082,137.7407 Q41.4014,137.7407 40.0815,136.0889 Q38.7617,134.437 38.7617,131.3159 Q38.7617,128.1865 40.0815,126.5347 Q41.4014,124.8828 43.9082,124.8828 Q44.6138,124.8828 45.2612,125.0322 Q45.9087,125.1816 46.4731,125.4805 L46.4731,128.2031 Q45.8423,127.6221 45.2488,127.3523 Q44.6553,127.0825 44.0244,127.0825 Q42.6797,127.0825 41.9949,128.1492 Q41.3101,129.2158 41.3101,131.3159 Q41.3101,133.4077 41.9949,134.4744 Q42.6797,135.541 44.0244,135.541 Q44.6553,135.541 45.2488,135.2712 Q45.8423,135.0015 46.4731,134.4204 Z " fill="#000000"/><text fill="#000000" font-family="sans-serif" font-size="14" lengthAdjust="spacing" textLength="90" x="58" y="136.291">vote_account</text><line style="stroke:#181818;stroke-width:0.5;" x1="30" x2="150" y1="147" y2="147"/><line style="stroke:#181818;stroke-width:0.5;" x1="30" x2="150" y1="155" y2="155"/></g><!--MD5=[de125af2a979c208317274fb8cf3eb3b]
class stake_account--><g id="elem_stake_account"><rect codeLine="9" fill="#F1F1F1" height="48" id="stake_account" rx="2.5" ry="2.5" style="stroke:#181818;stroke-width:0.5;" width="129" x="186.5" y="115"/><ellipse cx="201.5" cy="131" fill="#ADD1B2" rx="11" ry="11" style="stroke:#181818;stroke-width:1.0;"/><path d="M203.9731,137.1431 Q203.3921,137.4419 202.7529,137.5913 Q202.1138,137.7407 201.4082,137.7407 Q198.9014,137.7407 197.5815,136.0889 Q196.2617,134.437 196.2617,131.3159 Q196.2617,128.1865 197.5815,126.5347 Q198.9014,124.8828 201.4082,124.8828 Q202.1138,124.8828 202.7612,125.0322 Q203.4087,125.1816 203.9731,125.4805 L203.9731,128.2031 Q203.3423,127.6221 202.7488,127.3523 Q202.1553,127.0825 201.5244,127.0825 Q200.1797,127.0825 199.4949,128.1492 Q198.8101,129.2158 198.8101,131.3159 Q198.8101,133.4077 199.4949,134.4744 Q200.1797,135.541 201.5244,135.541 Q202.1553,135.541 202.7488,135.2712 Q203.3423,135.0015 203.9731,134.4204 Z " fill="#000000"/><text fill="#000000" font-family="sans-serif" font-size="14" lengthAdjust="spacing" textLength="97" x="215.5" y="136.291">stake_account</text><line style="stroke:#181818;stroke-width:0.5;" x1="187.5" x2="314.5" y1="147" y2="147"/><line style="stroke:#181818;stroke-width:0.5;" x1="187.5" x2="314.5" y1="155" y2="155"/></g><!--MD5=[3f84c78b817fb3ad3e57f26b27d94869]
class vote_state--><g id="elem_vote_state"><rect codeLine="13" fill="#F1F1F1" height="48" id="vote_state" rx="2.5" ry="2.5" style="stroke:#181818;stroke-width:0.5;" width="101" x="161.5" y="7"/><ellipse cx="176.5" cy="23" fill="#ADD1B2" rx="11" ry="11" style="stroke:#181818;stroke-width:1.0;"/><path d="M178.9731,29.1431 Q178.3921,29.4419 177.7529,29.5913 Q177.1138,29.7407 176.4082,29.7407 Q173.9014,29.7407 172.5815,28.0889 Q171.2617,26.437 171.2617,23.3159 Q171.2617,20.1865 172.5815,18.5347 Q173.9014,16.8828 176.4082,16.8828 Q177.1138,16.8828 177.7612,17.0322 Q178.4087,17.1816 178.9731,17.4805 L178.9731,20.2031 Q178.3423,19.6221 177.7488,19.3523 Q177.1553,19.0825 176.5244,19.0825 Q175.1797,19.0825 174.4949,20.1492 Q173.8101,21.2158 173.8101,23.3159 Q173.8101,25.4077 174.4949,26.4744 Q175.1797,27.541 176.5244,27.541 Q177.1553,27.541 177.7488,27.2712 Q178.3423,27.0015 178.9731,26.4204 Z " fill="#000000"/><text fill="#000000" font-family="sans-serif" font-size="14" lengthAdjust="spacing" textLength="69" x="190.5" y="28.291">vote_state</text><line style="stroke:#181818;stroke-width:0.5;" x1="162.5" x2="261.5" y1="39" y2="39"/><line style="stroke:#181818;stroke-width:0.5;" x1="162.5" x2="261.5" y1="47" y2="47"/></g><!--MD5=[f6b43e692ba66fe68ffbe25c0422d79a]
class stake_state--><g id="elem_stake_state"><rect codeLine="14" fill="#F1F1F1" height="48" id="stake_state" rx="2.5" ry="2.5" style="stroke:#181818;stroke-width:0.5;" width="108" x="298" y="7"/><ellipse cx="313" cy="23" fill="#ADD1B2" rx="11" ry="11" style="stroke:#181818;stroke-width:1.0;"/><path d="M315.4731,29.1431 Q314.8921,29.4419 314.2529,29.5913 Q313.6138,29.7407 312.9082,29.7407 Q310.4014,29.7407 309.0815,28.0889 Q307.7617,26.437 307.7617,23.3159 Q307.7617,20.1865 309.0815,18.5347 Q310.4014,16.8828 312.9082,16.8828 Q313.6138,16.8828 314.2612,17.0322 Q314.9087,17.1816 315.4731,17.4805 L315.4731,20.2031 Q314.8423,19.6221 314.2488,19.3523 Q313.6553,19.0825 313.0244,19.0825 Q311.6797,19.0825 310.9949,20.1492 Q310.3101,21.2158 310.3101,23.3159 Q310.3101,25.4077 310.9949,26.4744 Q311.6797,27.541 313.0244,27.541 Q313.6553,27.541 314.2488,27.2712 Q314.8423,27.0015 315.4731,26.4204 Z " fill="#000000"/><text fill="#000000" font-family="sans-serif" font-size="14" lengthAdjust="spacing" textLength="76" x="327" y="28.291">stake_state</text><line style="stroke:#181818;stroke-width:0.5;" x1="299" x2="405" y1="39" y2="39"/><line style="stroke:#181818;stroke-width:0.5;" x1="299" x2="405" y1="47" y2="47"/></g><!--MD5=[5615e8641ce6b0257b0bc3954e95f996]
class vote_instruction--><g id="elem_vote_instruction"><rect codeLine="33" fill="#F1F1F1" height="48" id="vote_instruction" rx="2.5" ry="2.5" style="stroke:#181818;stroke-width:0.5;" width="142" x="207" y="223"/><ellipse cx="222" cy="239" fill="#ADD1B2" rx="11" ry="11" style="stroke:#181818;stroke-width:1.0;"/><path d="M224.4731,245.1431 Q223.8921,245.4419 223.2529,245.5913 Q222.6138,245.7407 221.9082,245.7407 Q219.4014,245.7407 218.0815,244.0889 Q216.7617,242.437 216.7617,239.3159 Q216.7617,236.1865 218.0815,234.5347 Q219.4014,232.8828 221.9082,232.8828 Q222.6138,232.8828 223.2612,233.0322 Q223.9087,233.1816 224.4731,233.4805 L224.4731,236.2031 Q223.8423,235.6221 223.2488,235.3523 Q222.6553,235.0825 222.0244,235.0825 Q220.6797,235.0825 219.9949,236.1492 Q219.3101,237.2158 219.3101,239.3159 Q219.3101,241.4077 219.9949,242.4744 Q220.6797,243.541 222.0244,243.541 Q222.6553,243.541 223.2488,243.2712 Q223.8423,243.0015 224.4731,242.4204 Z " fill="#000000"/><text fill="#000000" font-family="sans-serif" font-size="14" lengthAdjust="spacing" textLength="110" x="236" y="244.291">vote_instruction</text><line style="stroke:#181818;stroke-width:0.5;" x1="208" x2="348" y1="255" y2="255"/><line style="stroke:#181818;stroke-width:0.5;" x1="208" x2="348" y1="263" y2="263"/></g><!--MD5=[e4d1cbac81cae09095fa7afc50c1e9ad]
class stake_instruction--><g id="elem_stake_instruction"><rect codeLine="19" fill="#F1F1F1" height="48" id="stake_instruction" rx="2.5" ry="2.5" style="stroke:#181818;stroke-width:0.5;" width="149" x="384.5" y="223"/><ellipse cx="399.5" cy="239" fill="#ADD1B2" rx="11" ry="11" style="stroke:#181818;stroke-width:1.0;"/><path d="M401.9731,245.1431 Q401.3921,245.4419 400.7529,245.5913 Q400.1138,245.7407 399.4082,245.7407 Q396.9014,245.7407 395.5815,244.0889 Q394.2617,242.437 394.2617,239.3159 Q394.2617,236.1865 395.5815,234.5347 Q396.9014,232.8828 399.4082,232.8828 Q400.1138,232.8828 400.7612,233.0322 Q401.4087,233.1816 401.9731,233.4805 L401.9731,236.2031 Q401.3423,235.6221 400.7488,235.3523 Q400.1553,235.0825 399.5244,235.0825 Q398.1797,235.0825 397.4949,236.1492 Q396.8101,237.2158 396.8101,239.3159 Q396.8101,241.4077 397.4949,242.4744 Q398.1797,243.541 399.5244,243.541 Q400.1553,243.541 400.7488,243.2712 Q401.3423,243.0015 401.9731,242.4204 Z " fill="#000000"/><text fill="#000000" font-family="sans-serif" font-size="14" lengthAdjust="spacing" textLength="117" x="413.5" y="244.291">stake_instruction</text><line style="stroke:#181818;stroke-width:0.5;" x1="385.5" x2="532.5" y1="255" y2="255"/><line style="stroke:#181818;stroke-width:0.5;" x1="385.5" x2="532.5" y1="263" y2="263"/></g><!--MD5=[71873abd324d05e574e7fc09a0d1ef3c]
class account_db--><g id="elem_account_db"><rect codeLine="23" fill="#F1F1F1" height="48" id="account_db" rx="2.5" ry="2.5" style="stroke:#181818;stroke-width:0.5;" width="111" x="62.5" y="439"/><ellipse cx="77.5" cy="455" fill="#ADD1B2" rx="11" ry="11" style="stroke:#181818;stroke-width:1.0;"/><path d="M79.9731,461.1431 Q79.3921,461.4419 78.7529,461.5913 Q78.1138,461.7407 77.4082,461.7407 Q74.9014,461.7407 73.5815,460.0889 Q72.2617,458.437 72.2617,455.3159 Q72.2617,452.1865 73.5815,450.5347 Q74.9014,448.8828 77.4082,448.8828 Q78.1138,448.8828 78.7612,449.0322 Q79.4087,449.1816 79.9731,449.4805 L79.9731,452.2031 Q79.3423,451.6221 78.7488,451.3523 Q78.1553,451.0825 77.5244,451.0825 Q76.1797,451.0825 75.4949,452.1492 Q74.8101,453.2158 74.8101,455.3159 Q74.8101,457.4077 75.4949,458.4744 Q76.1797,459.541 77.5244,459.541 Q78.1553,459.541 78.7488,459.2712 Q79.3423,459.0015 79.9731,458.4204 Z " fill="#000000"/><text fill="#000000" font-family="sans-serif" font-size="14" lengthAdjust="spacing" textLength="79" x="91.5" y="460.291">account_db</text><line style="stroke:#181818;stroke-width:0.5;" x1="63.5" x2="172.5" y1="471" y2="471"/><line style="stroke:#181818;stroke-width:0.5;" x1="63.5" x2="172.5" y1="479" y2="479"/></g><!--MD5=[7620979355317d338f56fda153b2a7db]
class runtime--><g id="elem_runtime"><rect codeLine="24" fill="#F1F1F1" height="48" id="runtime" rx="2.5" ry="2.5" style="stroke:#181818;stroke-width:0.5;" width="86" x="209" y="439"/><ellipse cx="224" cy="455" fill="#ADD1B2" rx="11" ry="11" style="stroke:#181818;stroke-width:1.0;"/><path d="M226.4731,461.1431 Q225.8921,461.4419 225.2529,461.5913 Q224.6138,461.7407 223.9082,461.7407 Q221.4014,461.7407 220.0815,460.0889 Q218.7617,458.437 218.7617,455.3159 Q218.7617,452.1865 220.0815,450.5347 Q221.4014,448.8828 223.9082,448.8828 Q224.6138,448.8828 225.2612,449.0322 Q225.9087,449.1816 226.4731,449.4805 L226.4731,452.2031 Q225.8423,451.6221 225.2488,451.3523 Q224.6553,451.0825 224.0244,451.0825 Q222.6797,451.0825 221.9949,452.1492 Q221.3101,453.2158 221.3101,455.3159 Q221.3101,457.4077 221.9949,458.4744 Q222.6797,459.541 224.0244,459.541 Q224.6553,459.541 225.2488,459.2712 Q225.8423,459.0015 226.4731,458.4204 Z " fill="#000000"/><text fill="#000000" font-family="sans-serif" font-size="14" lengthAdjust="spacing" textLength="54" x="238" y="460.291">runtime</text><line style="stroke:#181818;stroke-width:0.5;" x1="210" x2="294" y1="471" y2="471"/><line style="stroke:#181818;stroke-width:0.5;" x1="210" x2="294" y1="479" y2="479"/></g><!--MD5=[211d0ea2673ebe0d83556f2b3ec71856]
class bank--><g id="elem_bank"><rect codeLine="46" fill="#F1F1F1" height="48" id="bank" rx="2.5" ry="2.5" style="stroke:#181818;stroke-width:0.5;" width="66" x="7" y="331"/><ellipse cx="22" cy="347" fill="#ADD1B2" rx="11" ry="11" style="stroke:#181818;stroke-width:1.0;"/><path d="M24.4731,353.1431 Q23.8921,353.4419 23.2529,353.5913 Q22.6138,353.7407 21.9082,353.7407 Q19.4014,353.7407 18.0815,352.0889 Q16.7617,350.437 16.7617,347.3159 Q16.7617,344.1865 18.0815,342.5347 Q19.4014,340.8828 21.9082,340.8828 Q22.6138,340.8828 23.2612,341.0322 Q23.9087,341.1816 24.4731,341.4805 L24.4731,344.2031 Q23.8423,343.6221 23.2488,343.3523 Q22.6553,343.0825 22.0244,343.0825 Q20.6797,343.0825 19.9949,344.1492 Q19.3101,345.2158 19.3101,347.3159 Q19.3101,349.4077 19.9949,350.4744 Q20.6797,351.541 22.0244,351.541 Q22.6553,351.541 23.2488,351.2712 Q23.8423,351.0015 24.4731,350.4204 Z " fill="#000000"/><text fill="#000000" font-family="sans-serif" font-size="14" lengthAdjust="spacing" textLength="34" x="36" y="352.291">bank</text><line style="stroke:#181818;stroke-width:0.5;" x1="8" x2="72" y1="363" y2="363"/><line style="stroke:#181818;stroke-width:0.5;" x1="8" x2="72" y1="371" y2="371"/></g><!--MD5=[61f9f238fc1ddd7590f70df2466730d5]
reverse link vote_state to vote_account--><g id="link_vote_state_vote_account"><path codeLine="27" d="M181.63,58.39 C161.74,75.67 135.98,98.05 116.84,114.68 " fill="none" id="vote_state-backto-vote_account" style="stroke:#181818;stroke-width:1.0;"/><polygon fill="#181818" points="185.53,55,176.1103,57.8757,181.753,58.2763,181.3524,63.9189,185.53,55" style="stroke:#181818;stroke-width:1.0;"/></g><!--MD5=[f0bd92fdf981ce18652ff1e24a7022d0]
reverse link stake_state to stake_account--><g id="link_stake_state_stake_account"><path codeLine="28" d="M326.45,58.82 C310.04,76.04 288.93,98.19 273.22,114.68 " fill="none" id="stake_state-backto-stake_account" style="stroke:#181818;stroke-width:1.0;"/><polygon fill="#181818" points="330.08,55,320.9684,58.7389,326.6239,58.6132,326.7496,64.2687,330.08,55" style="stroke:#181818;stroke-width:1.0;"/></g><!--MD5=[899eacfac7b7ff3c5098ee79f83dfb5e]
reverse link vote_account to account--><g id="link_vote_account_account"><path codeLine="30" d="M95.77,168.33 C102.43,199.65 114.23,251.42 128,295 C131.81,307.06 136.84,320.19 141.22,330.99 " fill="none" id="vote_account-backto-account" style="stroke:#181818;stroke-width:1.0;"/><polygon fill="#181818" points="94.67,163.11,92.6042,172.7398,95.6972,168.0034,100.4336,171.0963,94.67,163.11" style="stroke:#181818;stroke-width:1.0;"/></g><!--MD5=[70b4cb0479c53e441dd73c85af96dbf9]
reverse link stake_account to account--><g id="link_stake_account_account"><path codeLine="31" d="M217.44,166.81 C207.68,176.09 197.83,187.16 191,199 C166.49,241.49 156.76,299.07 153.09,330.73 " fill="none" id="stake_account-backto-account" style="stroke:#181818;stroke-width:1.0;"/><polygon fill="#181818" points="221.31,163.21,211.995,166.4085,217.6481,166.6144,217.4421,172.2676,221.31,163.21" style="stroke:#181818;stroke-width:1.0;"/></g><!--MD5=[0c6ffd004fdb788f6f755d77a4975de6]
reverse link vote_instruction to instruction--><g id="link_vote_instruction_instruction"><path codeLine="34" d="M279.06,276.13 C279.7,293.15 280.51,314.6 281.12,330.68 " fill="none" id="vote_instruction-backto-instruction" style="stroke:#181818;stroke-width:1.0;"/><polygon fill="#181818" points="278.87,271,275.2068,280.1423,279.0556,275.9966,283.2013,279.8453,278.87,271" style="stroke:#181818;stroke-width:1.0;"/></g><!--MD5=[e5c95e1ac47a8fd06688982fc325ba8a]
reverse link stake_instruction to instruction--><g id="link_stake_instruction_instruction"><path codeLine="35" d="M416,273.75 C386.9,291.18 348.78,314.01 320.64,330.86 " fill="none" id="stake_instruction-backto-instruction" style="stroke:#181818;stroke-width:1.0;"/><polygon fill="#181818" points="420.59,271,410.8146,272.2005,416.3025,273.5725,414.9305,279.0604,420.59,271" style="stroke:#181818;stroke-width:1.0;"/></g><!--MD5=[4e2fc8b816292691622a72fa7a1a7442]
reverse link vote_account to vote_instruction--><g id="link_vote_account_vote_instruction"><path codeLine="37" d="M132.29,165.59 C144.12,172.63 157.01,180.19 169,187 C190.33,199.11 214.28,212.14 234.28,222.86 " fill="none" id="vote_account-backto-vote_instruction" style="stroke:#181818;stroke-width:1.0;"/><polygon fill="#181818" points="127.99,163.02,133.681,171.0582,132.2875,165.5757,137.77,164.1822,127.99,163.02" style="stroke:#181818;stroke-width:1.0;"/></g><!--MD5=[64d71d0dbea8c548e86c4b561cdf51bf]
reverse link stake_account to stake_instruction--><g id="link_stake_account_stake_instruction"><path codeLine="38" d="M301.04,165.43 C321.49,175.83 345.38,187.98 367,199 C382.18,206.74 398.76,215.21 413.62,222.8 " fill="none" id="stake_account-backto-stake_instruction" style="stroke:#181818;stroke-width:1.0;"/><polygon fill="#181818" points="296.46,163.1,302.6626,170.7504,300.9149,165.3703,306.295,163.6226,296.46,163.1" style="stroke:#181818;stroke-width:1.0;"/></g><!--MD5=[63bab7adbcf56da74dffa10172025bc1]
reverse link vote_state to vote_instruction--><g id="link_vote_state_vote_instruction"><path codeLine="40" d="M245.09,58.15 C256.03,65.79 268.59,73.54 281,79 C302.31,88.38 317.54,72.75 332,91 C358.49,124.45 347.45,147.23 332,187 C326.72,200.59 316.69,212.96 306.69,222.82 " fill="none" id="vote_state-backto-vote_instruction" style="stroke:#181818;stroke-width:1.0;stroke-dasharray:7.0,7.0;"/><polygon fill="#181818" points="240.82,55.13,245.8637,63.5894,244.904,58.0145,250.4789,57.0549,240.82,55.13" style="stroke:#181818;stroke-width:1.0;"/></g><!--MD5=[f7733fbe854411359ce37e07f438f9d6]
reverse link stake_state to stake_instruction--><g id="link_stake_state_stake_instruction"><path codeLine="41" d="M365.9,59.81 C387.2,102.4 427.51,183.02 447.36,222.72 " fill="none" id="stake_state-backto-stake_instruction" style="stroke:#181818;stroke-width:1.0;stroke-dasharray:7.0,7.0;"/><polygon fill="#181818" points="363.65,55.31,364.0846,65.1493,365.8803,59.785,371.2446,61.5807,363.65,55.31" style="stroke:#181818;stroke-width:1.0;"/></g><!--MD5=[d612e10900936d19fcb87e6830b3701c]
reverse link account to account_db--><g id="link_account_account_db"><path codeLine="43" d="M142.24,384.13 C136.94,401.15 130.26,422.6 125.26,438.68 " fill="none" id="account-backto-account_db" style="stroke:#181818;stroke-width:1.0;"/><polygon fill="#181818" points="143.84,379,137.3452,386.4039,142.3535,383.7739,144.9835,388.7823,143.84,379" style="stroke:#181818;stroke-width:1.0;"/></g><!--MD5=[e1ad85d834d7ec7b5dde5f392af92d0a]
reverse link instruction to runtime--><g id="link_instruction_runtime"><path codeLine="44" d="M274.04,384.13 C269.22,401.15 263.15,422.6 258.6,438.68 " fill="none" id="instruction-backto-runtime" style="stroke:#181818;stroke-width:1.0;"/><polygon fill="#181818" points="275.49,379,269.1773,386.5598,274.1202,383.8087,276.8713,388.7515,275.49,379" style="stroke:#181818;stroke-width:1.0;"/></g><!--MD5=[31623ce87656597b96f05aa9c122b87a]
link bank to account_db--><g id="link_bank_account_db"><path codeLine="47" d="M56.92,379 C68.9,395.28 85.02,417.19 97.7,434.41 " fill="none" id="bank-to-account_db" style="stroke:#181818;stroke-width:1.0;"/><polygon fill="#181818" points="100.84,438.68,98.7005,429.0663,97.8652,434.6612,92.2704,433.826,100.84,438.68" style="stroke:#181818;stroke-width:1.0;"/></g><!--MD5=[baefbf795a5530fb5e91db9e8ad78f25]
link bank to runtime--><g id="link_bank_runtime"><path codeLine="48" d="M59.56,379.01 C68.51,387.99 79.82,397.45 92,403 C132.33,421.39 149.98,398.21 191,415 C202.8,419.83 214.27,427.59 224.03,435.42 " fill="none" id="bank-to-runtime" style="stroke:#181818;stroke-width:1.0;"/><polygon fill="#181818" points="228.1,438.77,223.6886,429.9643,224.2379,435.5945,218.6077,436.1438,228.1,438.77" style="stroke:#181818;stroke-width:1.0;"/></g><!--MD5=[57d3b1a897e8a8093c9e4730fd2aba6f]
@startuml

together {
    class account
    class instruction
}

together {
    class vote_account
    class stake_account
}

together {
    class vote_state
    class stake_state
}

together {
    class vote_instruction
    class stake_instruction
}

together {
    class account_db
    class runtime
}

vote_state <- - vote_account
stake_state <- - stake_account

vote_account <- - account
stake_account <- - account

class vote_instruction
vote_instruction <- - instruction
stake_instruction <- - instruction

vote_account <- - vote_instruction
stake_account <- - stake_instruction

vote_state <.. vote_instruction
stake_state <.. stake_instruction

account <- - account_db
instruction <- - runtime

class bank
bank - -> account_db
bank - -> runtime
@enduml

PlantUML version 1.2022.7(Mon Aug 22 12:01:30 CDT 2022)
(GPL source distribution)
Java Runtime: OpenJDK Runtime Environment
JVM: OpenJDK 64-Bit Server VM
Default Encoding: UTF-8
Language: en
Country: US
--></g></svg>