<?xml version="1.0" encoding="UTF-8" standalone="no"?><svg xmlns="http://www.w3.org/2000/svg" xmlns:xlink="http://www.w3.org/1999/xlink" contentStyleType="text/css" height="494px" preserveAspectRatio="none" style="width:401px;height:494px;background:#FFFFFF;" version="1.1" viewBox="0 0 401 494" width="401px" zoomAndPan="magnify"><defs/><g><!--MD5=[cd869b34d688661372d713ff53dbac1f]
class account--><g id="elem_account"><rect codeLine="3" fill="#F1F1F1" height="48" id="account" rx="2.5" ry="2.5" style="stroke:#181818;stroke-width:0.5;" width="82" x="238.18" y="331"/><ellipse cx="253.18" cy="347" fill="#ADD1B2" rx="11" ry="11" style="stroke:#181818;stroke-width:1.0;"/><path d="M255.9456,342.875 Q256.1019,342.6563 256.2894,342.5469 Q256.4769,342.4375 256.6956,342.4375 Q257.0706,342.4375 257.305,342.6953 Q257.5394,342.9531 257.5394,343.5625 L257.5394,345.0156 Q257.5394,345.625 257.305,345.8906 Q257.0706,346.1563 256.6956,346.1563 Q256.3519,346.1563 256.1488,345.9531 Q255.9456,345.7656 255.8363,345.25 Q255.7894,344.8906 255.6019,344.7031 Q255.2738,344.3281 254.6644,344.1094 Q254.055,343.8906 253.43,343.8906 Q252.6644,343.8906 252.0316,344.2188 Q251.3988,344.5469 250.9066,345.2969 Q250.4144,346.0469 250.4144,347.0781 L250.4144,348.1719 Q250.4144,349.4063 251.305,350.2266 Q252.1956,351.0469 253.7894,351.0469 Q254.7269,351.0469 255.3831,350.7969 Q255.7738,350.6406 256.1956,350.2031 Q256.4613,349.9375 256.6097,349.8594 Q256.7581,349.7813 256.9613,349.7813 Q257.2894,349.7813 257.5472,350.0391 Q257.805,350.2969 257.805,350.6406 Q257.805,350.9844 257.4613,351.3906 Q256.9613,351.9688 256.1644,352.2969 Q255.0863,352.75 253.7894,352.75 Q252.2738,352.75 251.0706,352.125 Q250.0863,351.625 249.3988,350.5547 Q248.7113,349.4844 248.7113,348.2031 L248.7113,347.0469 Q248.7113,345.7188 249.3284,344.5703 Q249.9456,343.4219 251.0394,342.8047 Q252.1331,342.1875 253.3675,342.1875 Q254.1019,342.1875 254.7503,342.3516 Q255.3988,342.5156 255.9456,342.875 Z " fill="#000000"/><text fill="#000000" font-family="sans-serif" font-size="14" lengthAdjust="spacing" textLength="50" x="267.18" y="352.7285">account</text><line style="stroke:#181818;stroke-width:0.5;" x1="239.18" x2="319.18" y1="363" y2="363"/><line style="stroke:#181818;stroke-width:0.5;" x1="239.18" x2="319.18" y1="371" y2="371"/></g><!--MD5=[d7c68d707ef650cb3db5a970ae4af05f]
class instruction--><g id="elem_instruction"><rect codeLine="4" fill="#F1F1F1" height="48" id="instruction" rx="2.5" ry="2.5" style="stroke:#181818;stroke-width:0.5;" width="97" x="105.68" y="331"/><ellipse cx="120.68" cy="347" fill="#ADD1B2" rx="11" ry="11" style="stroke:#181818;stroke-width:1.0;"/><path d="M123.4456,342.875 Q123.6019,342.6563 123.7894,342.5469 Q123.9769,342.4375 124.1956,342.4375 Q124.5706,342.4375 124.805,342.6953 Q125.0394,342.9531 125.0394,343.5625 L125.0394,345.0156 Q125.0394,345.625 124.805,345.8906 Q124.5706,346.1563 124.1956,346.1563 Q123.8519,346.1563 123.6488,345.9531 Q123.4456,345.7656 123.3363,345.25 Q123.2894,344.8906 123.1019,344.7031 Q122.7738,344.3281 122.1644,344.1094 Q121.555,343.8906 120.93,343.8906 Q120.1644,343.8906 119.5316,344.2188 Q118.8988,344.5469 118.4066,345.2969 Q117.9144,346.0469 117.9144,347.0781 L117.9144,348.1719 Q117.9144,349.4063 118.805,350.2266 Q119.6956,351.0469 121.2894,351.0469 Q122.2269,351.0469 122.8831,350.7969 Q123.2738,350.6406 123.6956,350.2031 Q123.9613,349.9375 124.1097,349.8594 Q124.2581,349.7813 124.4613,349.7813 Q124.7894,349.7813 125.0472,350.0391 Q125.305,350.2969 125.305,350.6406 Q125.305,350.9844 124.9613,351.3906 Q124.4613,351.9688 123.6644,352.2969 Q122.5863,352.75 121.2894,352.75 Q119.7738,352.75 118.5706,352.125 Q117.5863,351.625 116.8988,350.5547 Q116.2113,349.4844 116.2113,348.2031 L116.2113,347.0469 Q116.2113,345.7188 116.8284,344.5703 Q117.4456,343.4219 118.5394,342.8047 Q119.6331,342.1875 120.8675,342.1875 Q121.6019,342.1875 122.2503,342.3516 Q122.8988,342.5156 123.4456,342.875 Z " fill="#000000"/><text fill="#000000" font-family="sans-serif" font-size="14" lengthAdjust="spacing" textLength="65" x="134.68" y="352.7285">instruction</text><line style="stroke:#181818;stroke-width:0.5;" x1="106.68" x2="201.68" y1="363" y2="363"/><line style="stroke:#181818;stroke-width:0.5;" x1="106.68" x2="201.68" y1="371" y2="371"/></g><!--MD5=[ad11c074f17e94f855bb4a3cc417fef6]
class vote_account--><g id="elem_vote_account"><rect codeLine="8" fill="#F1F1F1" height="48" id="vote_account" rx="2.5" ry="2.5" style="stroke:#181818;stroke-width:0.5;" width="117" x="65.68" y="115"/><ellipse cx="80.68" cy="131" fill="#ADD1B2" rx="11" ry="11" style="stroke:#181818;stroke-width:1.0;"/><path d="M83.4456,126.875 Q83.6019,126.6563 83.7894,126.5469 Q83.9769,126.4375 84.1956,126.4375 Q84.5706,126.4375 84.805,126.6953 Q85.0394,126.9531 85.0394,127.5625 L85.0394,129.0156 Q85.0394,129.625 84.805,129.8906 Q84.5706,130.1563 84.1956,130.1563 Q83.8519,130.1563 83.6488,129.9531 Q83.4456,129.7656 83.3363,129.25 Q83.2894,128.8906 83.1019,128.7031 Q82.7738,128.3281 82.1644,128.1094 Q81.555,127.8906 80.93,127.8906 Q80.1644,127.8906 79.5316,128.2188 Q78.8988,128.5469 78.4066,129.2969 Q77.9144,130.0469 77.9144,131.0781 L77.9144,132.1719 Q77.9144,133.4063 78.805,134.2266 Q79.6956,135.0469 81.2894,135.0469 Q82.2269,135.0469 82.8831,134.7969 Q83.2738,134.6406 83.6956,134.2031 Q83.9613,133.9375 84.1097,133.8594 Q84.2581,133.7813 84.4613,133.7813 Q84.7894,133.7813 85.0472,134.0391 Q85.305,134.2969 85.305,134.6406 Q85.305,134.9844 84.9613,135.3906 Q84.4613,135.9688 83.6644,136.2969 Q82.5863,136.75 81.2894,136.75 Q79.7738,136.75 78.5706,136.125 Q77.5863,135.625 76.8988,134.5547 Q76.2113,133.4844 76.2113,132.2031 L76.2113,131.0469 Q76.2113,129.7188 76.8284,128.5703 Q77.4456,127.4219 78.5394,126.8047 Q79.6331,126.1875 80.8675,126.1875 Q81.6019,126.1875 82.2503,126.3516 Q82.8988,126.5156 83.4456,126.875 Z " fill="#000000"/><text fill="#000000" font-family="sans-serif" font-size="14" lengthAdjust="spacing" textLength="85" x="94.68" y="136.7285">vote_account</text><line style="stroke:#181818;stroke-width:0.5;" x1="66.68" x2="181.68" y1="147" y2="147"/><line style="stroke:#181818;stroke-width:0.5;" x1="66.68" x2="181.68" y1="155" y2="155"/></g><!--MD5=[de125af2a979c208317274fb8cf3eb3b]
class stake_account--><g id="elem_stake_account"><rect codeLine="9" fill="#F1F1F1" height="48" id="stake_account" rx="2.5" ry="2.5" style="stroke:#181818;stroke-width:0.5;" width="124" x="218.18" y="115"/><ellipse cx="233.18" cy="131" fill="#ADD1B2" rx="11" ry="11" style="stroke:#181818;stroke-width:1.0;"/><path d="M235.9456,126.875 Q236.1019,126.6563 236.2894,126.5469 Q236.4769,126.4375 236.6956,126.4375 Q237.0706,126.4375 237.305,126.6953 Q237.5394,126.9531 237.5394,127.5625 L237.5394,129.0156 Q237.5394,129.625 237.305,129.8906 Q237.0706,130.1563 236.6956,130.1563 Q236.3519,130.1563 236.1488,129.9531 Q235.9456,129.7656 235.8363,129.25 Q235.7894,128.8906 235.6019,128.7031 Q235.2738,128.3281 234.6644,128.1094 Q234.055,127.8906 233.43,127.8906 Q232.6644,127.8906 232.0316,128.2188 Q231.3988,128.5469 230.9066,129.2969 Q230.4144,130.0469 230.4144,131.0781 L230.4144,132.1719 Q230.4144,133.4063 231.305,134.2266 Q232.1956,135.0469 233.7894,135.0469 Q234.7269,135.0469 235.3831,134.7969 Q235.7738,134.6406 236.1956,134.2031 Q236.4613,133.9375 236.6097,133.8594 Q236.7581,133.7813 236.9613,133.7813 Q237.2894,133.7813 237.5472,134.0391 Q237.805,134.2969 237.805,134.6406 Q237.805,134.9844 237.4613,135.3906 Q236.9613,135.9688 236.1644,136.2969 Q235.0863,136.75 233.7894,136.75 Q232.2738,136.75 231.0706,136.125 Q230.0863,135.625 229.3988,134.5547 Q228.7113,133.4844 228.7113,132.2031 L228.7113,131.0469 Q228.7113,129.7188 229.3284,128.5703 Q229.9456,127.4219 231.0394,126.8047 Q232.1331,126.1875 233.3675,126.1875 Q234.1019,126.1875 234.7503,126.3516 Q235.3988,126.5156 235.9456,126.875 Z " fill="#000000"/><text fill="#000000" font-family="sans-serif" font-size="14" lengthAdjust="spacing" textLength="92" x="247.18" y="136.7285">stake_account</text><line style="stroke:#181818;stroke-width:0.5;" x1="219.18" x2="341.18" y1="147" y2="147"/><line style="stroke:#181818;stroke-width:0.5;" x1="219.18" x2="341.18" y1="155" y2="155"/></g><!--MD5=[3f84c78b817fb3ad3e57f26b27d94869]
class vote_state--><g id="elem_vote_state"><rect codeLine="13" fill="#F1F1F1" height="48" id="vote_state" rx="2.5" ry="2.5" style="stroke:#181818;stroke-width:0.5;" width="98" x="84.18" y="7"/><ellipse cx="99.18" cy="23" fill="#ADD1B2" rx="11" ry="11" style="stroke:#181818;stroke-width:1.0;"/><path d="M101.9456,18.875 Q102.1019,18.6563 102.2894,18.5469 Q102.4769,18.4375 102.6956,18.4375 Q103.0706,18.4375 103.305,18.6953 Q103.5394,18.9531 103.5394,19.5625 L103.5394,21.0156 Q103.5394,21.625 103.305,21.8906 Q103.0706,22.1563 102.6956,22.1563 Q102.3519,22.1563 102.1488,21.9531 Q101.9456,21.7656 101.8363,21.25 Q101.7894,20.8906 101.6019,20.7031 Q101.2738,20.3281 100.6644,20.1094 Q100.055,19.8906 99.43,19.8906 Q98.6644,19.8906 98.0316,20.2188 Q97.3988,20.5469 96.9066,21.2969 Q96.4144,22.0469 96.4144,23.0781 L96.4144,24.1719 Q96.4144,25.4063 97.305,26.2266 Q98.1956,27.0469 99.7894,27.0469 Q100.7269,27.0469 101.3831,26.7969 Q101.7738,26.6406 102.1956,26.2031 Q102.4613,25.9375 102.6097,25.8594 Q102.7581,25.7813 102.9613,25.7813 Q103.2894,25.7813 103.5472,26.0391 Q103.805,26.2969 103.805,26.6406 Q103.805,26.9844 103.4613,27.3906 Q102.9613,27.9688 102.1644,28.2969 Q101.0863,28.75 99.7894,28.75 Q98.2738,28.75 97.0706,28.125 Q96.0863,27.625 95.3988,26.5547 Q94.7113,25.4844 94.7113,24.2031 L94.7113,23.0469 Q94.7113,21.7188 95.3284,20.5703 Q95.9456,19.4219 97.0394,18.8047 Q98.1331,18.1875 99.3675,18.1875 Q100.1019,18.1875 100.7503,18.3516 Q101.3988,18.5156 101.9456,18.875 Z " fill="#000000"/><text fill="#000000" font-family="sans-serif" font-size="14" lengthAdjust="spacing" textLength="66" x="113.18" y="28.7285">vote_state</text><line style="stroke:#181818;stroke-width:0.5;" x1="85.18" x2="181.18" y1="39" y2="39"/><line style="stroke:#181818;stroke-width:0.5;" x1="85.18" x2="181.18" y1="47" y2="47"/></g><!--MD5=[f6b43e692ba66fe68ffbe25c0422d79a]
class stake_state--><g id="elem_stake_state"><rect codeLine="14" fill="#F1F1F1" height="48" id="stake_state" rx="2.5" ry="2.5" style="stroke:#181818;stroke-width:0.5;" width="105" x="217.68" y="7"/><ellipse cx="232.68" cy="23" fill="#ADD1B2" rx="11" ry="11" style="stroke:#181818;stroke-width:1.0;"/><path d="M235.4456,18.875 Q235.6019,18.6563 235.7894,18.5469 Q235.9769,18.4375 236.1956,18.4375 Q236.5706,18.4375 236.805,18.6953 Q237.0394,18.9531 237.0394,19.5625 L237.0394,21.0156 Q237.0394,21.625 236.805,21.8906 Q236.5706,22.1563 236.1956,22.1563 Q235.8519,22.1563 235.6488,21.9531 Q235.4456,21.7656 235.3363,21.25 Q235.2894,20.8906 235.1019,20.7031 Q234.7738,20.3281 234.1644,20.1094 Q233.555,19.8906 232.93,19.8906 Q232.1644,19.8906 231.5316,20.2188 Q230.8988,20.5469 230.4066,21.2969 Q229.9144,22.0469 229.9144,23.0781 L229.9144,24.1719 Q229.9144,25.4063 230.805,26.2266 Q231.6956,27.0469 233.2894,27.0469 Q234.2269,27.0469 234.8831,26.7969 Q235.2738,26.6406 235.6956,26.2031 Q235.9613,25.9375 236.1097,25.8594 Q236.2581,25.7813 236.4613,25.7813 Q236.7894,25.7813 237.0472,26.0391 Q237.305,26.2969 237.305,26.6406 Q237.305,26.9844 236.9613,27.3906 Q236.4613,27.9688 235.6644,28.2969 Q234.5863,28.75 233.2894,28.75 Q231.7738,28.75 230.5706,28.125 Q229.5863,27.625 228.8988,26.5547 Q228.2113,25.4844 228.2113,24.2031 L228.2113,23.0469 Q228.2113,21.7188 228.8284,20.5703 Q229.4456,19.4219 230.5394,18.8047 Q231.6331,18.1875 232.8675,18.1875 Q233.6019,18.1875 234.2503,18.3516 Q234.8988,18.5156 235.4456,18.875 Z " fill="#000000"/><text fill="#000000" font-family="sans-serif" font-size="14" lengthAdjust="spacing" textLength="73" x="246.68" y="28.7285">stake_state</text><line style="stroke:#181818;stroke-width:0.5;" x1="218.68" x2="321.68" y1="39" y2="39"/><line style="stroke:#181818;stroke-width:0.5;" x1="218.68" x2="321.68" y1="47" y2="47"/></g><!--MD5=[5615e8641ce6b0257b0bc3954e95f996]
class vote_instruction--><g id="elem_vote_instruction"><rect codeLine="33" fill="#F1F1F1" height="48" id="vote_instruction" rx="2.5" ry="2.5" style="stroke:#181818;stroke-width:0.5;" width="132" x="51.18" y="223"/><ellipse cx="66.18" cy="239" fill="#ADD1B2" rx="11" ry="11" style="stroke:#181818;stroke-width:1.0;"/><path d="M68.9456,234.875 Q69.1019,234.6563 69.2894,234.5469 Q69.4769,234.4375 69.6956,234.4375 Q70.0706,234.4375 70.305,234.6953 Q70.5394,234.9531 70.5394,235.5625 L70.5394,237.0156 Q70.5394,237.625 70.305,237.8906 Q70.0706,238.1563 69.6956,238.1563 Q69.3519,238.1563 69.1488,237.9531 Q68.9456,237.7656 68.8363,237.25 Q68.7894,236.8906 68.6019,236.7031 Q68.2738,236.3281 67.6644,236.1094 Q67.055,235.8906 66.43,235.8906 Q65.6644,235.8906 65.0316,236.2188 Q64.3988,236.5469 63.9066,237.2969 Q63.4144,238.0469 63.4144,239.0781 L63.4144,240.1719 Q63.4144,241.4063 64.305,242.2266 Q65.1956,243.0469 66.7894,243.0469 Q67.7269,243.0469 68.3831,242.7969 Q68.7738,242.6406 69.1956,242.2031 Q69.4613,241.9375 69.6097,241.8594 Q69.7581,241.7813 69.9613,241.7813 Q70.2894,241.7813 70.5472,242.0391 Q70.805,242.2969 70.805,242.6406 Q70.805,242.9844 70.4613,243.3906 Q69.9613,243.9688 69.1644,244.2969 Q68.0863,244.75 66.7894,244.75 Q65.2738,244.75 64.0706,244.125 Q63.0863,243.625 62.3988,242.5547 Q61.7113,241.4844 61.7113,240.2031 L61.7113,239.0469 Q61.7113,237.7188 62.3284,236.5703 Q62.9456,235.4219 64.0394,234.8047 Q65.1331,234.1875 66.3675,234.1875 Q67.1019,234.1875 67.7503,234.3516 Q68.3988,234.5156 68.9456,234.875 Z " fill="#000000"/><text fill="#000000" font-family="sans-serif" font-size="14" lengthAdjust="spacing" textLength="100" x="80.18" y="244.7285">vote_instruction</text><line style="stroke:#181818;stroke-width:0.5;" x1="52.18" x2="182.18" y1="255" y2="255"/><line style="stroke:#181818;stroke-width:0.5;" x1="52.18" x2="182.18" y1="263" y2="263"/></g><!--MD5=[e4d1cbac81cae09095fa7afc50c1e9ad]
class stake_instruction--><g id="elem_stake_instruction"><rect codeLine="19" fill="#F1F1F1" height="48" id="stake_instruction" rx="2.5" ry="2.5" style="stroke:#181818;stroke-width:0.5;" width="139" x="218.68" y="223"/><ellipse cx="233.68" cy="239" fill="#ADD1B2" rx="11" ry="11" style="stroke:#181818;stroke-width:1.0;"/><path d="M236.4456,234.875 Q236.6019,234.6563 236.7894,234.5469 Q236.9769,234.4375 237.1956,234.4375 Q237.5706,234.4375 237.805,234.6953 Q238.0394,234.9531 238.0394,235.5625 L238.0394,237.0156 Q238.0394,237.625 237.805,237.8906 Q237.5706,238.1563 237.1956,238.1563 Q236.8519,238.1563 236.6488,237.9531 Q236.4456,237.7656 236.3363,237.25 Q236.2894,236.8906 236.1019,236.7031 Q235.7738,236.3281 235.1644,236.1094 Q234.555,235.8906 233.93,235.8906 Q233.1644,235.8906 232.5316,236.2188 Q231.8988,236.5469 231.4066,237.2969 Q230.9144,238.0469 230.9144,239.0781 L230.9144,240.1719 Q230.9144,241.4063 231.805,242.2266 Q232.6956,243.0469 234.2894,243.0469 Q235.2269,243.0469 235.8831,242.7969 Q236.2738,242.6406 236.6956,242.2031 Q236.9613,241.9375 237.1097,241.8594 Q237.2581,241.7813 237.4613,241.7813 Q237.7894,241.7813 238.0472,242.0391 Q238.305,242.2969 238.305,242.6406 Q238.305,242.9844 237.9613,243.3906 Q237.4613,243.9688 236.6644,244.2969 Q235.5863,244.75 234.2894,244.75 Q232.7738,244.75 231.5706,244.125 Q230.5863,243.625 229.8988,242.5547 Q229.2113,241.4844 229.2113,240.2031 L229.2113,239.0469 Q229.2113,237.7188 229.8284,236.5703 Q230.4456,235.4219 231.5394,234.8047 Q232.6331,234.1875 233.8675,234.1875 Q234.6019,234.1875 235.2503,234.3516 Q235.8988,234.5156 236.4456,234.875 Z " fill="#000000"/><text fill="#000000" font-family="sans-serif" font-size="14" lengthAdjust="spacing" textLength="107" x="247.68" y="244.7285">stake_instruction</text><line style="stroke:#181818;stroke-width:0.5;" x1="219.68" x2="356.68" y1="255" y2="255"/><line style="stroke:#181818;stroke-width:0.5;" x1="219.68" x2="356.68" y1="263" y2="263"/></g><!--MD5=[71873abd324d05e574e7fc09a0d1ef3c]
class account_db--><g id="elem_account_db"><rect codeLine="23" fill="#F1F1F1" height="48" id="account_db" rx="2.5" ry="2.5" style="stroke:#181818;stroke-width:0.5;" width="106" x="146.18" y="439"/><ellipse cx="161.18" cy="455" fill="#ADD1B2" rx="11" ry="11" style="stroke:#181818;stroke-width:1.0;"/><path d="M163.9456,450.875 Q164.1019,450.6563 164.2894,450.5469 Q164.4769,450.4375 164.6956,450.4375 Q165.0706,450.4375 165.305,450.6953 Q165.5394,450.9531 165.5394,451.5625 L165.5394,453.0156 Q165.5394,453.625 165.305,453.8906 Q165.0706,454.1563 164.6956,454.1563 Q164.3519,454.1563 164.1488,453.9531 Q163.9456,453.7656 163.8363,453.25 Q163.7894,452.8906 163.6019,452.7031 Q163.2738,452.3281 162.6644,452.1094 Q162.055,451.8906 161.43,451.8906 Q160.6644,451.8906 160.0316,452.2188 Q159.3988,452.5469 158.9066,453.2969 Q158.4144,454.0469 158.4144,455.0781 L158.4144,456.1719 Q158.4144,457.4063 159.305,458.2266 Q160.1956,459.0469 161.7894,459.0469 Q162.7269,459.0469 163.3831,458.7969 Q163.7738,458.6406 164.1956,458.2031 Q164.4613,457.9375 164.6097,457.8594 Q164.7581,457.7813 164.9613,457.7813 Q165.2894,457.7813 165.5472,458.0391 Q165.805,458.2969 165.805,458.6406 Q165.805,458.9844 165.4613,459.3906 Q164.9613,459.9688 164.1644,460.2969 Q163.0863,460.75 161.7894,460.75 Q160.2738,460.75 159.0706,460.125 Q158.0863,459.625 157.3988,458.5547 Q156.7113,457.4844 156.7113,456.2031 L156.7113,455.0469 Q156.7113,453.7188 157.3284,452.5703 Q157.9456,451.4219 159.0394,450.8047 Q160.1331,450.1875 161.3675,450.1875 Q162.1019,450.1875 162.7503,450.3516 Q163.3988,450.5156 163.9456,450.875 Z " fill="#000000"/><text fill="#000000" font-family="sans-serif" font-size="14" lengthAdjust="spacing" textLength="74" x="175.18" y="460.7285">account_db</text><line style="stroke:#181818;stroke-width:0.5;" x1="147.18" x2="251.18" y1="471" y2="471"/><line style="stroke:#181818;stroke-width:0.5;" x1="147.18" x2="251.18" y1="479" y2="479"/></g><!--MD5=[7620979355317d338f56fda153b2a7db]
class runtime--><g id="elem_runtime"><rect codeLine="24" fill="#F1F1F1" height="48" id="runtime" rx="2.5" ry="2.5" style="stroke:#181818;stroke-width:0.5;" width="79" x="31.68" y="439"/><ellipse cx="46.68" cy="455" fill="#ADD1B2" rx="11" ry="11" style="stroke:#181818;stroke-width:1.0;"/><path d="M49.4456,450.875 Q49.6019,450.6563 49.7894,450.5469 Q49.9769,450.4375 50.1956,450.4375 Q50.5706,450.4375 50.805,450.6953 Q51.0394,450.9531 51.0394,451.5625 L51.0394,453.0156 Q51.0394,453.625 50.805,453.8906 Q50.5706,454.1563 50.1956,454.1563 Q49.8519,454.1563 49.6488,453.9531 Q49.4456,453.7656 49.3363,453.25 Q49.2894,452.8906 49.1019,452.7031 Q48.7738,452.3281 48.1644,452.1094 Q47.555,451.8906 46.93,451.8906 Q46.1644,451.8906 45.5316,452.2188 Q44.8988,452.5469 44.4066,453.2969 Q43.9144,454.0469 43.9144,455.0781 L43.9144,456.1719 Q43.9144,457.4063 44.805,458.2266 Q45.6956,459.0469 47.2894,459.0469 Q48.2269,459.0469 48.8831,458.7969 Q49.2738,458.6406 49.6956,458.2031 Q49.9613,457.9375 50.1097,457.8594 Q50.2581,457.7813 50.4613,457.7813 Q50.7894,457.7813 51.0472,458.0391 Q51.305,458.2969 51.305,458.6406 Q51.305,458.9844 50.9613,459.3906 Q50.4613,459.9688 49.6644,460.2969 Q48.5863,460.75 47.2894,460.75 Q45.7738,460.75 44.5706,460.125 Q43.5863,459.625 42.8988,458.5547 Q42.2113,457.4844 42.2113,456.2031 L42.2113,455.0469 Q42.2113,453.7188 42.8284,452.5703 Q43.4456,451.4219 44.5394,450.8047 Q45.6331,450.1875 46.8675,450.1875 Q47.6019,450.1875 48.2503,450.3516 Q48.8988,450.5156 49.4456,450.875 Z " fill="#000000"/><text fill="#000000" font-family="sans-serif" font-size="14" lengthAdjust="spacing" textLength="47" x="60.68" y="460.7285">runtime</text><line style="stroke:#181818;stroke-width:0.5;" x1="32.68" x2="109.68" y1="471" y2="471"/><line style="stroke:#181818;stroke-width:0.5;" x1="32.68" x2="109.68" y1="479" y2="479"/></g><!--MD5=[211d0ea2673ebe0d83556f2b3ec71856]
class bank--><g id="elem_bank"><rect codeLine="43" fill="#F1F1F1" height="48" id="bank" rx="2.5" ry="2.5" style="stroke:#181818;stroke-width:0.5;" width="63" x="7.68" y="331"/><ellipse cx="22.68" cy="347" fill="#ADD1B2" rx="11" ry="11" style="stroke:#181818;stroke-width:1.0;"/><path d="M25.4456,342.875 Q25.6019,342.6563 25.7894,342.5469 Q25.9769,342.4375 26.1956,342.4375 Q26.5706,342.4375 26.805,342.6953 Q27.0394,342.9531 27.0394,343.5625 L27.0394,345.0156 Q27.0394,345.625 26.805,345.8906 Q26.5706,346.1563 26.1956,346.1563 Q25.8519,346.1563 25.6488,345.9531 Q25.4456,345.7656 25.3363,345.25 Q25.2894,344.8906 25.1019,344.7031 Q24.7738,344.3281 24.1644,344.1094 Q23.555,343.8906 22.93,343.8906 Q22.1644,343.8906 21.5316,344.2188 Q20.8988,344.5469 20.4066,345.2969 Q19.9144,346.0469 19.9144,347.0781 L19.9144,348.1719 Q19.9144,349.4063 20.805,350.2266 Q21.6956,351.0469 23.2894,351.0469 Q24.2269,351.0469 24.8831,350.7969 Q25.2738,350.6406 25.6956,350.2031 Q25.9613,349.9375 26.1097,349.8594 Q26.2581,349.7813 26.4613,349.7813 Q26.7894,349.7813 27.0472,350.0391 Q27.305,350.2969 27.305,350.6406 Q27.305,350.9844 26.9613,351.3906 Q26.4613,351.9688 25.6644,352.2969 Q24.5863,352.75 23.2894,352.75 Q21.7738,352.75 20.5706,352.125 Q19.5863,351.625 18.8988,350.5547 Q18.2113,349.4844 18.2113,348.2031 L18.2113,347.0469 Q18.2113,345.7188 18.8284,344.5703 Q19.4456,343.4219 20.5394,342.8047 Q21.6331,342.1875 22.8675,342.1875 Q23.6019,342.1875 24.2503,342.3516 Q24.8988,342.5156 25.4456,342.875 Z " fill="#000000"/><text fill="#000000" font-family="sans-serif" font-size="14" lengthAdjust="spacing" textLength="31" x="36.68" y="352.7285">bank</text><line style="stroke:#181818;stroke-width:0.5;" x1="8.68" x2="69.68" y1="363" y2="363"/><line style="stroke:#181818;stroke-width:0.5;" x1="8.68" x2="69.68" y1="371" y2="371"/></g><!--MD5=[61f9f238fc1ddd7590f70df2466730d5]
reverse link vote_state to vote_account--><g id="link_vote_state_vote_account"><path codeLine="27" d="M130.79,60.13 C129.35,77.15 127.52,98.6 126.16,114.68 " fill="none" id="vote_state-backto-vote_account" style="stroke:#181818;stroke-width:1.0;"/><polygon fill="#181818" points="131.23,55,126.4739,63.6244,130.8018,59.9816,134.4445,64.3095,131.23,55" style="stroke:#181818;stroke-width:1.0;"/></g><!--MD5=[f0bd92fdf981ce18652ff1e24a7022d0]
reverse link stake_state to stake_account--><g id="link_stake_state_stake_account"><path codeLine="28" d="M272.83,60.13 C274.44,77.15 276.46,98.6 277.98,114.68 " fill="none" id="stake_state-backto-stake_account" style="stroke:#181818;stroke-width:1.0;"/><polygon fill="#181818" points="272.35,55,269.2175,64.3374,272.822,59.9777,277.1818,63.5822,272.35,55" style="stroke:#181818;stroke-width:1.0;"/></g><!--MD5=[899eacfac7b7ff3c5098ee79f83dfb5e]
reverse link vote_account to account--><g id="link_vote_account_account"><path codeLine="30" d="M66.99,165.95 C54.27,174.57 42.43,185.5 35.18,199 C15,236.59 6,263.87 35.18,295 C49.27,310.03 200.97,299.58 220.18,307 C233.74,312.24 246.63,321.77 256.89,330.89 " fill="none" id="vote_account-backto-account" style="stroke:#181818;stroke-width:1.0;"/><polygon fill="#181818" points="71.33,163.12,61.6061,164.6839,67.1414,165.8505,65.9749,171.3857,71.33,163.12" style="stroke:#181818;stroke-width:1.0;"/></g><!--MD5=[70b4cb0479c53e441dd73c85af96dbf9]
reverse link stake_account to account--><g id="link_stake_account_account"><path codeLine="31" d="M341.38,165.92 C354.49,174.46 366.64,185.37 374.18,199 C394.83,236.34 394.92,257.71 374.18,295 C362.67,315.7 340.55,330.07 320.56,339.44 " fill="none" id="stake_account-backto-account" style="stroke:#181818;stroke-width:1.0;"/><polygon fill="#181818" points="336.91,163.11,342.4146,171.277,341.1476,165.7638,346.6607,164.4968,336.91,163.11" style="stroke:#181818;stroke-width:1.0;"/></g><!--MD5=[0c6ffd004fdb788f6f755d77a4975de6]
reverse link vote_instruction to instruction--><g id="link_vote_instruction_instruction"><path codeLine="34" d="M127,276.13 C132.94,293.15 140.43,314.6 146.04,330.68 " fill="none" id="vote_instruction-backto-instruction" style="stroke:#181818;stroke-width:1.0;"/><polygon fill="#181818" points="125.21,271,124.4117,280.8164,126.8637,275.7186,131.9615,278.1706,125.21,271" style="stroke:#181818;stroke-width:1.0;"/></g><!--MD5=[e5c95e1ac47a8fd06688982fc325ba8a]
reverse link stake_instruction to instruction--><g id="link_stake_instruction_instruction"><path codeLine="35" d="M255.1,274.17 C233.21,291.48 204.77,313.98 183.66,330.68 " fill="none" id="stake_instruction-backto-instruction" style="stroke:#181818;stroke-width:1.0;"/><polygon fill="#181818" points="259.1,271,249.5612,273.4519,255.1804,274.1042,254.528,279.7234,259.1,271" style="stroke:#181818;stroke-width:1.0;"/></g><!--MD5=[4e2fc8b816292691622a72fa7a1a7442]
reverse link vote_account to vote_instruction--><g id="link_vote_account_vote_instruction"><path codeLine="37" d="M122.32,168.13 C121.2,185.15 119.78,206.6 118.72,222.68 " fill="none" id="vote_account-backto-vote_instruction" style="stroke:#181818;stroke-width:1.0;stroke-dasharray:7.0,7.0;"/><polygon fill="#181818" points="122.66,163,118.0768,171.7175,122.3312,167.9892,126.0595,172.2436,122.66,163" style="stroke:#181818;stroke-width:1.0;"/></g><!--MD5=[64d71d0dbea8c548e86c4b561cdf51bf]
reverse link stake_account to stake_instruction--><g id="link_stake_account_stake_instruction"><path codeLine="38" d="M282.3,168.13 C283.59,185.15 285.21,206.6 286.42,222.68 " fill="none" id="stake_account-backto-stake_instruction" style="stroke:#181818;stroke-width:1.0;stroke-dasharray:7.0,7.0;"/><polygon fill="#181818" points="281.92,163,278.6261,172.2817,282.3057,167.9851,286.6023,171.6647,281.92,163" style="stroke:#181818;stroke-width:1.0;"/></g><!--MD5=[d612e10900936d19fcb87e6830b3701c]
reverse link account to account_db--><g id="link_account_account_db"><path codeLine="40" d="M258.61,383.25 C245.66,400.41 229.12,422.33 216.78,438.68 " fill="none" id="account-backto-account_db" style="stroke:#181818;stroke-width:1.0;"/><polygon fill="#181818" points="261.82,379,253.2091,383.7804,258.8109,382.9931,259.5981,388.595,261.82,379" style="stroke:#181818;stroke-width:1.0;"/></g><!--MD5=[e1ad85d834d7ec7b5dde5f392af92d0a]
reverse link instruction to runtime--><g id="link_instruction_runtime"><path codeLine="41" d="M132.84,383.25 C119.4,400.41 102.25,422.33 89.44,438.68 " fill="none" id="instruction-backto-runtime" style="stroke:#181818;stroke-width:1.0;"/><polygon fill="#181818" points="136.17,379,127.4732,383.6223,133.0885,382.9375,133.7732,388.5528,136.17,379" style="stroke:#181818;stroke-width:1.0;"/></g><!--MD5=[31623ce87656597b96f05aa9c122b87a]
link bank to account_db--><g id="link_bank_account_db"><path codeLine="44" d="M59.8,379.45 C68.21,387.85 78.47,396.77 89.18,403 C104.86,412.11 111.78,407.25 128.18,415 C140.45,420.8 153.05,428.49 164.17,435.96 " fill="none" id="bank-to-account_db" style="stroke:#181818;stroke-width:1.0;"/><polygon fill="#181818" points="168.51,438.92,163.3462,430.5334,164.3852,436.094,158.8246,437.1331,168.51,438.92" style="stroke:#181818;stroke-width:1.0;"/></g><!--MD5=[baefbf795a5530fb5e91db9e8ad78f25]
link bank to runtime--><g id="link_bank_runtime"><path codeLine="45" d="M46.12,379 C50.95,395 57.43,416.45 62.58,433.53 " fill="none" id="bank-to-runtime" style="stroke:#181818;stroke-width:1.0;"/><polygon fill="#181818" points="64.14,438.68,65.3718,428.9085,62.6967,433.8928,57.7123,431.2177,64.14,438.68" style="stroke:#181818;stroke-width:1.0;"/></g><!--MD5=[c5b37c20777269b00c6d46f273b98a3b]
@startuml

together {
    class account
    class instruction
}

together {
    class vote_account
    class stake_account
}

together {
    class vote_state
    class stake_state
}

together {
    class vote_instruction
    class stake_instruction
}

together {
    class account_db
    class runtime
}

vote_state <- - vote_account
stake_state <- - stake_account

vote_account <- - account
stake_account <- - account

class vote_instruction
vote_instruction <- - instruction
stake_instruction <- - instruction

vote_account <.. vote_instruction
stake_account <.. stake_instruction

account <- - account_db
instruction <- - runtime

class bank
bank - -> account_db
bank - -> runtime
@enduml

PlantUML version 1.2022.7(Mon Aug 22 12:01:30 CDT 2022)
(GPL source distribution)
Java Runtime: Java(TM) SE Runtime Environment
JVM: Java HotSpot(TM) 64-Bit Server VM
Default Encoding: Cp1252
Language: en
Country: US
--></g></svg>