<?xml version="1.0" encoding="UTF-8" standalone="no"?><svg xmlns="http://www.w3.org/2000/svg" xmlns:xlink="http://www.w3.org/1999/xlink" contentStyleType="text/css" height="540px" preserveAspectRatio="none" style="width:585px;height:540px;background:#FFFFFF;" version="1.1" viewBox="0 0 585 540" width="585px" zoomAndPan="magnify"><defs/><g><rect fill="#F1F1F1" height="37.6094" rx="12.5" ry="12.5" style="stroke:#181818;stroke-width:1.5;" width="62" x="10" y="250.4375"/><text fill="#000000" font-family="sans-serif" font-size="14" lengthAdjust="spacing" textLength="42" x="20" y="274.9707">cluster</text><rect fill="#F1F1F1" height="37.6094" rx="12.5" ry="12.5" style="stroke:#181818;stroke-width:1.5;" width="60" x="122" y="164.0234"/><text fill="#000000" font-family="sans-serif" font-size="14" lengthAdjust="spacing" textLength="40" x="132" y="188.5566">node1</text><rect fill="#F1F1F1" height="37.6094" rx="12.5" ry="12.5" style="stroke:#181818;stroke-width:1.5;" width="105" x="232" y="106.4141"/><text fill="#000000" font-family="sans-serif" font-size="14" lengthAdjust="spacing" textLength="85" x="242" y="130.9473">vote_account</text><rect fill="#F1F1F1" height="37.6094" rx="12.5" ry="12.5" style="stroke:#181818;stroke-width:1.5;" width="186" x="387" y="20"/><text fill="#000000" font-family="sans-serif" font-size="14" lengthAdjust="spacing" textLength="166" x="397" y="44.5332">stake_account_delegation</text><path d="M337,125.2188 L347,125.2188 C362,125.2188 362,38.8047 377,38.8047 L387,38.8047 " fill="none" style="stroke:#181818;stroke-width:1.0;"/><rect fill="#F1F1F1" height="37.6094" rx="12.5" ry="12.5" style="stroke:#181818;stroke-width:1.5;" width="186" x="387" y="77.6094"/><text fill="#000000" font-family="sans-serif" font-size="14" lengthAdjust="spacing" textLength="166" x="397" y="102.1426">stake_account_delegation</text><path d="M337,125.2188 L347,125.2188 C362,125.2188 362,96.4141 377,96.4141 L387,96.4141 " fill="none" style="stroke:#181818;stroke-width:1.0;"/><rect fill="#F1F1F1" height="37.6094" rx="12.5" ry="12.5" style="stroke:#181818;stroke-width:1.5;" width="186" x="387" y="135.2188"/><text fill="#000000" font-family="sans-serif" font-size="14" lengthAdjust="spacing" textLength="166" x="397" y="159.752">stake_account_delegation</text><path d="M337,125.2188 L347,125.2188 C362,125.2188 362,154.0234 377,154.0234 L387,154.0234 " fill="none" style="stroke:#181818;stroke-width:1.0;"/><rect fill="#F1F1F1" height="37.6094" rx="12.5" ry="12.5" style="stroke:#181818;stroke-width:1.5;" width="32" x="387" y="192.8281"/><text fill="#000000" font-family="sans-serif" font-size="14" lengthAdjust="spacing" textLength="12" x="397" y="217.3613">...</text><path d="M337,125.2188 L347,125.2188 C362,125.2188 362,211.6328 377,211.6328 L387,211.6328 " fill="none" style="stroke:#181818;stroke-width:1.0;"/><path d="M182,182.8281 L192,182.8281 C207,182.8281 207,125.2188 222,125.2188 L232,125.2188 " fill="none" style="stroke:#181818;stroke-width:1.0;"/><rect fill="#F1F1F1" height="37.6094" rx="12.5" ry="12.5" style="stroke:#181818;stroke-width:1.5;" width="105" x="232" y="250.4375"/><text fill="#000000" font-family="sans-serif" font-size="14" lengthAdjust="spacing" textLength="85" x="242" y="274.9707">vote_account</text><rect fill="#F1F1F1" height="37.6094" rx="12.5" ry="12.5" style="stroke:#181818;stroke-width:1.5;" width="32" x="387" y="250.4375"/><text fill="#000000" font-family="sans-serif" font-size="14" lengthAdjust="spacing" textLength="12" x="397" y="274.9707">...</text><path d="M337,269.2422 L347,269.2422 C362,269.2422 362,269.2422 377,269.2422 L387,269.2422 " fill="none" style="stroke:#181818;stroke-width:1.0;"/><path d="M182,182.8281 L192,182.8281 C207,182.8281 207,269.2422 222,269.2422 L232,269.2422 " fill="none" style="stroke:#181818;stroke-width:1.0;"/><rect fill="#F1F1F1" height="37.6094" rx="12.5" ry="12.5" style="stroke:#181818;stroke-width:1.5;" width="32" x="232" y="308.0469"/><text fill="#000000" font-family="sans-serif" font-size="14" lengthAdjust="spacing" textLength="12" x="242" y="332.5801">...</text><path d="M182,182.8281 L192,182.8281 C207,182.8281 207,326.8516 222,326.8516 L232,326.8516 " fill="none" style="stroke:#181818;stroke-width:1.0;"/><path d="M72,269.2422 L82,269.2422 C97,269.2422 97,182.8281 112,182.8281 L122,182.8281 " fill="none" style="stroke:#181818;stroke-width:1.0;"/><rect fill="#F1F1F1" height="37.6094" rx="12.5" ry="12.5" style="stroke:#181818;stroke-width:1.5;" width="60" x="122" y="365.6563"/><text fill="#000000" font-family="sans-serif" font-size="14" lengthAdjust="spacing" textLength="40" x="132" y="390.1895">node2</text><rect fill="#F1F1F1" height="37.6094" rx="12.5" ry="12.5" style="stroke:#181818;stroke-width:1.5;" width="105" x="232" y="365.6563"/><text fill="#000000" font-family="sans-serif" font-size="14" lengthAdjust="spacing" textLength="85" x="242" y="390.1895">vote_account</text><rect fill="#F1F1F1" height="37.6094" rx="12.5" ry="12.5" style="stroke:#181818;stroke-width:1.5;" width="32" x="387" y="365.6563"/><text fill="#000000" font-family="sans-serif" font-size="14" lengthAdjust="spacing" textLength="12" x="397" y="390.1895">...</text><path d="M337,384.4609 L347,384.4609 C362,384.4609 362,384.4609 377,384.4609 L387,384.4609 " fill="none" style="stroke:#181818;stroke-width:1.0;"/><path d="M182,384.4609 L192,384.4609 C207,384.4609 207,384.4609 222,384.4609 L232,384.4609 " fill="none" style="stroke:#181818;stroke-width:1.0;"/><path d="M72,269.2422 L82,269.2422 C97,269.2422 97,384.4609 112,384.4609 L122,384.4609 " fill="none" style="stroke:#181818;stroke-width:1.0;"/><rect fill="#F1F1F1" height="37.6094" rx="12.5" ry="12.5" style="stroke:#181818;stroke-width:1.5;" width="60" x="122" y="423.2656"/><text fill="#000000" font-family="sans-serif" font-size="14" lengthAdjust="spacing" textLength="40" x="132" y="447.7988">node3</text><rect fill="#F1F1F1" height="37.6094" rx="12.5" ry="12.5" style="stroke:#181818;stroke-width:1.5;" width="32" x="232" y="423.2656"/><text fill="#000000" font-family="sans-serif" font-size="14" lengthAdjust="spacing" textLength="12" x="242" y="447.7988">...</text><path d="M182,442.0703 L192,442.0703 C207,442.0703 207,442.0703 222,442.0703 L232,442.0703 " fill="none" style="stroke:#181818;stroke-width:1.0;"/><path d="M72,269.2422 L82,269.2422 C97,269.2422 97,442.0703 112,442.0703 L122,442.0703 " fill="none" style="stroke:#181818;stroke-width:1.0;"/><rect fill="#F1F1F1" height="37.6094" rx="12.5" ry="12.5" style="stroke:#181818;stroke-width:1.5;" width="32" x="122" y="480.875"/><text fill="#000000" font-family="sans-serif" font-size="14" lengthAdjust="spacing" textLength="12" x="132" y="505.4082">...</text><path d="M72,269.2422 L82,269.2422 C97,269.2422 97,499.6797 112,499.6797 L122,499.6797 " fill="none" style="stroke:#181818;stroke-width:1.0;"/><!--MD5=[c498004303cf1891580277121ab74251]
@startmindmap
* cluster
** node1
*** vote_account
**** stake_account_delegation
**** stake_account_delegation
**** stake_account_delegation
**** ...
*** vote_account
**** ...
*** ...
** node2
*** vote_account
**** ...
** node3
*** ...
** ...
@endmindmap

PlantUML version 1.2022.7(Mon Aug 22 12:01:30 CDT 2022)
(GPL source distribution)
Java Runtime: Java(TM) SE Runtime Environment
JVM: Java HotSpot(TM) 64-Bit Server VM
Default Encoding: Cp1252
Language: en
Country: US
--></g></svg>