<?xml version="1.0" encoding="UTF-8" standalone="no"?><svg xmlns="http://www.w3.org/2000/svg" xmlns:xlink="http://www.w3.org/1999/xlink" contentStyleType="text/css" height="540px" preserveAspectRatio="none" style="width:577px;height:540px;background:#FFFFFF;" version="1.1" viewBox="0 0 577 540" width="577px" zoomAndPan="magnify"><defs/><g><rect fill="#F1F1F1" height="37.6094" rx="12.5" ry="12.5" style="stroke:#181818;stroke-width:1.5;" width="62" x="10" y="250.4375"/><text fill="#000000" font-family="sans-serif" font-size="14" lengthAdjust="spacing" textLength="42" x="20" y="274.9707">cluster</text><rect fill="#F1F1F1" height="37.6094" rx="12.5" ry="12.5" style="stroke:#181818;stroke-width:1.5;" width="52" x="122" y="164.0234"/><text fill="#000000" font-family="sans-serif" font-size="14" lengthAdjust="spacing" textLength="32" x="132" y="188.5566">node</text><rect fill="#F1F1F1" height="37.6094" rx="12.5" ry="12.5" style="stroke:#181818;stroke-width:1.5;" width="105" x="224" y="106.4141"/><text fill="#000000" font-family="sans-serif" font-size="14" lengthAdjust="spacing" textLength="85" x="234" y="130.9473">vote_account</text><rect fill="#F1F1F1" height="37.6094" rx="12.5" ry="12.5" style="stroke:#181818;stroke-width:1.5;" width="186" x="379" y="20"/><text fill="#000000" font-family="sans-serif" font-size="14" lengthAdjust="spacing" textLength="166" x="389" y="44.5332">stake_account_delegation</text><path d="M329,125.2188 L339,125.2188 C354,125.2188 354,38.8047 369,38.8047 L379,38.8047 " fill="none" style="stroke:#181818;stroke-width:1.0;"/><rect fill="#F1F1F1" height="37.6094" rx="12.5" ry="12.5" style="stroke:#181818;stroke-width:1.5;" width="186" x="379" y="77.6094"/><text fill="#000000" font-family="sans-serif" font-size="14" lengthAdjust="spacing" textLength="166" x="389" y="102.1426">stake_account_delegation</text><path d="M329,125.2188 L339,125.2188 C354,125.2188 354,96.4141 369,96.4141 L379,96.4141 " fill="none" style="stroke:#181818;stroke-width:1.0;"/><rect fill="#F1F1F1" height="37.6094" rx="12.5" ry="12.5" style="stroke:#181818;stroke-width:1.5;" width="186" x="379" y="135.2188"/><text fill="#000000" font-family="sans-serif" font-size="14" lengthAdjust="spacing" textLength="166" x="389" y="159.752">stake_account_delegation</text><path d="M329,125.2188 L339,125.2188 C354,125.2188 354,154.0234 369,154.0234 L379,154.0234 " fill="none" style="stroke:#181818;stroke-width:1.0;"/><rect fill="#F1F1F1" height="37.6094" rx="12.5" ry="12.5" style="stroke:#181818;stroke-width:1.5;" width="32" x="379" y="192.8281"/><text fill="#000000" font-family="sans-serif" font-size="14" lengthAdjust="spacing" textLength="12" x="389" y="217.3613">...</text><path d="M329,125.2188 L339,125.2188 C354,125.2188 354,211.6328 369,211.6328 L379,211.6328 " fill="none" style="stroke:#181818;stroke-width:1.0;"/><path d="M174,182.8281 L184,182.8281 C199,182.8281 199,125.2188 214,125.2188 L224,125.2188 " fill="none" style="stroke:#181818;stroke-width:1.0;"/><rect fill="#F1F1F1" height="37.6094" rx="12.5" ry="12.5" style="stroke:#181818;stroke-width:1.5;" width="105" x="224" y="250.4375"/><text fill="#000000" font-family="sans-serif" font-size="14" lengthAdjust="spacing" textLength="85" x="234" y="274.9707">vote_account</text><rect fill="#F1F1F1" height="37.6094" rx="12.5" ry="12.5" style="stroke:#181818;stroke-width:1.5;" width="32" x="379" y="250.4375"/><text fill="#000000" font-family="sans-serif" font-size="14" lengthAdjust="spacing" textLength="12" x="389" y="274.9707">...</text><path d="M329,269.2422 L339,269.2422 C354,269.2422 354,269.2422 369,269.2422 L379,269.2422 " fill="none" style="stroke:#181818;stroke-width:1.0;"/><path d="M174,182.8281 L184,182.8281 C199,182.8281 199,269.2422 214,269.2422 L224,269.2422 " fill="none" style="stroke:#181818;stroke-width:1.0;"/><rect fill="#F1F1F1" height="37.6094" rx="12.5" ry="12.5" style="stroke:#181818;stroke-width:1.5;" width="32" x="224" y="308.0469"/><text fill="#000000" font-family="sans-serif" font-size="14" lengthAdjust="spacing" textLength="12" x="234" y="332.5801">...</text><path d="M174,182.8281 L184,182.8281 C199,182.8281 199,326.8516 214,326.8516 L224,326.8516 " fill="none" style="stroke:#181818;stroke-width:1.0;"/><path d="M72,269.2422 L82,269.2422 C97,269.2422 97,182.8281 112,182.8281 L122,182.8281 " fill="none" style="stroke:#181818;stroke-width:1.0;"/><rect fill="#F1F1F1" height="37.6094" rx="12.5" ry="12.5" style="stroke:#181818;stroke-width:1.5;" width="52" x="122" y="365.6563"/><text fill="#000000" font-family="sans-serif" font-size="14" lengthAdjust="spacing" textLength="32" x="132" y="390.1895">node</text><rect fill="#F1F1F1" height="37.6094" rx="12.5" ry="12.5" style="stroke:#181818;stroke-width:1.5;" width="105" x="224" y="365.6563"/><text fill="#000000" font-family="sans-serif" font-size="14" lengthAdjust="spacing" textLength="85" x="234" y="390.1895">vote_account</text><rect fill="#F1F1F1" height="37.6094" rx="12.5" ry="12.5" style="stroke:#181818;stroke-width:1.5;" width="32" x="379" y="365.6563"/><text fill="#000000" font-family="sans-serif" font-size="14" lengthAdjust="spacing" textLength="12" x="389" y="390.1895">...</text><path d="M329,384.4609 L339,384.4609 C354,384.4609 354,384.4609 369,384.4609 L379,384.4609 " fill="none" style="stroke:#181818;stroke-width:1.0;"/><path d="M174,384.4609 L184,384.4609 C199,384.4609 199,384.4609 214,384.4609 L224,384.4609 " fill="none" style="stroke:#181818;stroke-width:1.0;"/><path d="M72,269.2422 L82,269.2422 C97,269.2422 97,384.4609 112,384.4609 L122,384.4609 " fill="none" style="stroke:#181818;stroke-width:1.0;"/><rect fill="#F1F1F1" height="37.6094" rx="12.5" ry="12.5" style="stroke:#181818;stroke-width:1.5;" width="52" x="122" y="423.2656"/><text fill="#000000" font-family="sans-serif" font-size="14" lengthAdjust="spacing" textLength="32" x="132" y="447.7988">node</text><rect fill="#F1F1F1" height="37.6094" rx="12.5" ry="12.5" style="stroke:#181818;stroke-width:1.5;" width="32" x="224" y="423.2656"/><text fill="#000000" font-family="sans-serif" font-size="14" lengthAdjust="spacing" textLength="12" x="234" y="447.7988">...</text><path d="M174,442.0703 L184,442.0703 C199,442.0703 199,442.0703 214,442.0703 L224,442.0703 " fill="none" style="stroke:#181818;stroke-width:1.0;"/><path d="M72,269.2422 L82,269.2422 C97,269.2422 97,442.0703 112,442.0703 L122,442.0703 " fill="none" style="stroke:#181818;stroke-width:1.0;"/><rect fill="#F1F1F1" height="37.6094" rx="12.5" ry="12.5" style="stroke:#181818;stroke-width:1.5;" width="32" x="122" y="480.875"/><text fill="#000000" font-family="sans-serif" font-size="14" lengthAdjust="spacing" textLength="12" x="132" y="505.4082">...</text><path d="M72,269.2422 L82,269.2422 C97,269.2422 97,499.6797 112,499.6797 L122,499.6797 " fill="none" style="stroke:#181818;stroke-width:1.0;"/><!--MD5=[48d2db4f3b8cd2fce534d6dde712f652]
@startmindmap
* cluster
** node
*** vote_account
**** stake_account_delegation
**** stake_account_delegation
**** stake_account_delegation
**** ...
*** vote_account
**** ...
*** ...
** node
*** vote_account
**** ...
** node
*** ...
** ...
@endmindmap

PlantUML version 1.2022.7(Mon Aug 22 12:01:30 CDT 2022)
(GPL source distribution)
Java Runtime: Java(TM) SE Runtime Environment
JVM: Java HotSpot(TM) 64-Bit Server VM
Default Encoding: Cp1252
Language: en
Country: US
--></g></svg>